<?xml version="1.0" encoding="UTF-8"?>
<svg version="1.1" xmlns="http://www.w3.org/2000/svg" width="2306" height="317">
<path d="M0 0 C24.75 0 49.5 0 75 0 C84.17604272 22.9401068 84.17604272 22.9401068 87.19140625 31.265625 C87.53842087 32.21511017 87.88543549 33.16459534 88.2429657 34.14285278 C88.97518248 36.14676621 89.70615978 38.15113297 90.43591309 40.15594482 C92.40445526 45.56234358 94.38413048 50.96466511 96.36328125 56.3671875 C96.76026215 57.45129913 97.15724304 58.53541077 97.56625366 59.65237427 C101.08187402 69.24385342 104.6521681 78.81410066 108.25 88.375 C109.45071208 91.56633435 110.65130514 94.75771334 111.8515625 97.94921875 C112.1652327 98.78322708 112.47890289 99.61723541 112.80207825 100.47651672 C115.76472144 108.3606914 118.70768401 116.25217398 121.6484375 124.14453125 C122.01751221 125.13496178 122.01751221 125.13496178 122.39404297 126.145401 C124.86183506 132.76806583 127.32866775 139.39108717 129.79405022 146.01464939 C130.93773116 149.08677161 132.08224478 152.15858367 133.2265625 155.23046875 C133.63433929 156.32688187 134.04211609 157.42329498 134.46224976 158.55293274 C137.25802411 166.05610086 140.12522036 173.52557293 143 181 C143 121.27 143 61.54 143 0 C162.47 0 181.94 0 202 0 C202 99.33 202 198.66 202 301 C177.91 301 153.82 301 129 301 C119.82201065 278.05502662 119.82201065 278.05502662 116.14453125 268.29296875 C115.72477524 267.18378082 115.30501923 266.0745929 114.87254333 264.93179321 C113.97947076 262.57149414 113.08719299 260.2108942 112.19567871 257.8500061 C110.03040983 252.11661068 107.85968613 246.38528249 105.68906021 240.6539135 C105.18991887 239.33590025 104.6908422 238.01786251 104.19182968 236.69980049 C98.90219433 222.72808321 93.58137774 208.76834222 88.25 194.8125 C87.86284821 193.79868256 87.47569641 192.78486511 87.07681274 191.74032593 C78.06905816 168.15339379 69.03163545 144.57779499 60 121 C60.01252808 122.3111377 60.02505615 123.62227539 60.03796387 124.97314453 C60.19679544 141.64871919 60.35038205 158.3243402 60.5 175 C60.50594854 175.66223509 60.51189708 176.32447018 60.51802588 177.00677299 C60.88890895 218.3408089 61.10438365 259.66407604 61 301 C40.87 301 20.74 301 0 301 C0 201.67 0 102.34 0 0 Z " fill="#000000" transform="translate(1394,8)"/>
<path d="M0 0 C32.65684659 28.65739608 44.9801266 72.10264197 48.18261719 114.12451172 C50.13178841 154.28556046 46.45675398 194.83414575 28.49511719 231.31201172 C27.91761719 232.49537109 27.34011719 233.67873047 26.74511719 234.89794922 C14.4187856 258.92288254 -5.8361006 278.9818111 -31.66894531 287.77685547 C-60.10886182 296.89089256 -90.11345124 295.18287036 -116.77929688 281.52514648 C-147.02694647 265.31571907 -164.0379916 235.83089875 -173.85327148 203.99755859 C-179.37217635 185.35715814 -182.60803734 165.79263062 -182.70800781 146.33544922 C-182.71506744 145.41549164 -182.72212708 144.49553406 -182.72940063 143.54769897 C-182.96076565 104.53906405 -182.96076565 104.53906405 -179.50488281 87.31201172 C-179.1988916 85.78423096 -179.1988916 85.78423096 -178.88671875 84.22558594 C-171.6829308 49.54359372 -157.60819815 15.76262625 -127.84863281 -5.59423828 C-125.11271924 -7.38673338 -122.34244246 -9.06148655 -119.50488281 -10.68798828 C-118.59222656 -11.21263672 -117.67957031 -11.73728516 -116.73925781 -12.27783203 C-80.31096885 -31.83564291 -31.37341703 -26.87288532 0 0 Z M-91.50488281 54.31201172 C-92.02695313 54.80056641 -92.54902344 55.28912109 -93.08691406 55.79248047 C-113.03589136 76.267816 -112.95762363 114.2525764 -112.71582031 140.63232422 C-112.17718911 167.10505057 -108.7838305 196.26391023 -89.70410156 216.21826172 C-81.87063087 223.67605975 -74.79331333 225.79837929 -64.05175781 225.62841797 C-56.50751971 224.95541875 -49.63880723 221.99695944 -44.50488281 216.31201172 C-28.23732244 196.85021378 -22.44553474 170.34057953 -22.30175781 145.42138672 C-22.2947435 144.60265579 -22.28772919 143.78392487 -22.28050232 142.94038391 C-22.26310422 140.31420322 -22.2566508 137.68824791 -22.25488281 135.06201172 C-22.25420807 134.16561981 -22.25353333 133.26922791 -22.25283813 132.34567261 C-22.26864086 119.14715005 -22.52568968 106.2316229 -25.50488281 93.31201172 C-25.75431641 92.20841309 -25.75431641 92.20841309 -26.00878906 91.08251953 C-29.31552931 77.0901094 -34.83941623 62.34291965 -45.50488281 52.31201172 C-46.05789063 51.75126953 -46.61089844 51.19052734 -47.18066406 50.61279297 C-53.10405927 44.98897177 -59.36949962 43.19535708 -67.44238281 42.87451172 C-77.57723315 43.18357958 -84.50558234 47.22161407 -91.50488281 54.31201172 Z " fill="#000000" transform="translate(2031.5048828125,23.68798828125)"/>
<path d="M0 0 C133.65281174 0 133.65281174 0 156 20 C156.72316406 20.62003906 157.44632813 21.24007813 158.19140625 21.87890625 C172.71439278 35.22236088 178.36896721 54.05279103 179.22265625 73.29296875 C179.86181406 96.12109937 174.62790081 115.87656787 158.625 132.8125 C154.22961312 137.07748273 149.38822709 140.13152838 144 143 C146.81064107 144.87376071 149.49883458 146.16048362 152.5625 147.5625 C159.06911379 150.79618502 163.91713054 154.85692735 169 160 C169.71027344 160.68835938 170.42054688 161.37671875 171.15234375 162.0859375 C186.37137579 177.80155983 189.46676756 199.53857477 189.21484375 220.4609375 C188.61273429 241.99476509 181.55940311 261.82877266 166.5234375 277.66015625 C124.52022787 316.60740481 44.55816621 301 0 301 C0 201.67 0 102.34 0 0 Z M64 58 C64 78.79 64 99.58 64 121 C89.28882093 122.56114135 89.28882093 122.56114135 109.4375 113.8125 C117.62105183 104.83055287 118.71338152 94.62082139 118.17480469 82.99609375 C117.52398758 75.56441681 114.52875943 69.40232798 109 64.43359375 C95.43390568 54.70945974 80.87263011 58 64 58 Z M64 172 C64 195.76 64 219.52 64 244 C90.52188012 244.67894114 90.52188012 244.67894114 113.8125 235.1875 C122.25686342 226.74313658 123.86191564 216.56142702 124 205 C123.41493764 195.00193438 119.49581131 186.98110043 112.1875 180.125 C97.8807679 168.48190132 82.78217711 172 64 172 Z " fill="#000000" transform="translate(1640,8)"/>
<path d="M0 0 C28.38 0 56.76 0 86 0 C90.59628268 17.23606004 90.59628268 17.23606004 92.45996094 24.93823242 C92.67610802 25.82559806 92.8922551 26.7129637 93.11495209 27.6272192 C93.8230648 30.53624007 94.52877315 33.44583792 95.234375 36.35546875 C95.7455542 38.45835046 96.25684889 40.56120411 96.76824951 42.66403198 C98.14431652 48.32465105 99.51803501 53.98583755 100.8911438 59.64717484 C101.75560821 63.21061784 102.62074592 66.77389674 103.48608398 70.33712769 C112.63219293 108.00096699 121.70824748 145.68136818 130.72899246 183.37541962 C135.60976557 203.76871505 140.5116154 224.15616531 145.5 244.5234375 C145.93391575 246.29684048 146.36779486 248.07025241 146.80163574 249.84367371 C148.61438502 257.25116635 150.42964087 264.65798665 152.25941467 272.06129456 C152.97892601 274.97684959 153.69394489 277.89349315 154.40783691 280.81042862 C154.89050762 282.77574467 155.37923462 284.73957026 155.86816406 286.70333862 C156.15208008 287.86592194 156.43599609 289.02850525 156.72851562 290.22631836 C156.97589478 291.22819687 157.22327393 292.23007538 157.47814941 293.26231384 C158 296 158 296 158 301 C134.57 301 111.14 301 87 301 C85.79023404 297.37070213 84.70106266 294.03859712 83.85498047 290.35913086 C83.65492401 289.49480942 83.45486755 288.63048798 83.24874878 287.73997498 C83.04033356 286.82418167 82.83191833 285.90838837 82.6171875 284.96484375 C82.39805695 284.00856583 82.17892639 283.0522879 81.95315552 282.06703186 C81.49275498 280.05277695 81.03395431 278.03815578 80.57666016 276.02319336 C79.8762636 272.94305693 79.16689655 269.8650755 78.45703125 266.78710938 C78.00986767 264.82564591 77.56323497 262.86406133 77.1171875 260.90234375 C76.79849197 259.52561745 76.79849197 259.52561745 76.47335815 258.12107849 C76.27960602 257.25990921 76.08585388 256.39873993 75.88623047 255.51147461 C75.71461395 254.75901962 75.54299744 254.00656464 75.36618042 253.23130798 C75 251 75 251 75 246 C52.89 246 30.78 246 8 246 C7.34 249.96 6.68 253.92 6 258 C5.31722191 261.28212346 4.61675226 264.54922928 3.87109375 267.81640625 C3.67653091 268.68015366 3.48196808 269.54390106 3.2815094 270.43382263 C2.87553758 272.2330143 2.46797346 274.0318474 2.05883789 275.83032227 C1.43188236 278.58720217 0.81028817 281.34525163 0.18945312 284.10351562 C-0.20802462 285.86204897 -0.60580007 287.62051506 -1.00390625 289.37890625 C-1.18933487 290.20072891 -1.37476349 291.02255157 -1.56581116 291.86927795 C-2.27107339 294.96343782 -2.99575129 297.98725386 -4 301 C-26.77 301 -49.54 301 -73 301 C-68.37055042 280.16747688 -68.37055042 280.16747688 -65.93295288 270.12442017 C-65.752216 269.37891529 -65.57147911 268.63341042 -65.38526535 267.86531448 C-65.1036801 266.70415178 -65.1036801 266.70415178 -64.81640625 265.51953125 C-64.4086223 263.83274181 -64.00096266 262.14592231 -63.59341431 260.45907593 C-62.48505056 255.87379411 -61.3744156 251.28906526 -60.26324081 246.70446396 C-59.55459468 243.77987468 -58.84660575 240.85512706 -58.13882446 237.93032837 C-48.29071301 197.23589361 -38.37593391 156.55767572 -28.4543457 115.88110352 C-27.23907041 110.89860627 -26.02381894 105.91610321 -24.80859375 100.93359375 C-24.51335878 99.72314203 -24.21812382 98.51269032 -23.91394234 97.26555824 C-20.06979708 81.50356821 -16.23346838 65.73971277 -12.41015625 49.97265625 C-12.20275 49.11749609 -11.99534374 48.26233593 -11.78165245 47.38126183 C-9.90654364 39.64988436 -8.03227505 31.91830618 -6.1620245 24.18575191 C-5.67346931 22.16652979 -5.1843788 20.14743824 -4.6950531 18.12840271 C-4.11730245 15.7441887 -3.54053154 13.35973694 -2.96498108 10.97499084 C-2.71711349 9.95296066 -2.46924591 8.93093048 -2.21386719 7.87792969 C-1.89539825 6.56100128 -1.89539825 6.56100128 -1.57049561 5.21746826 C-1.11796283 3.45851155 -0.57434438 1.72303313 0 0 Z M41 67 C35.78340636 90.60010719 31.10964133 114.30695415 26.4296875 138.01806641 C25.32966825 143.59126291 24.22586227 149.16370195 23.1210041 154.73594093 C22.2651994 159.05403226 21.41122266 163.37248347 20.557827 167.69105148 C20.15088032 169.74932975 19.74338542 171.80749969 19.33533096 173.86555862 C18.77134418 176.71160555 18.20979291 179.55812204 17.64892578 182.40478516 C17.48068802 183.25127625 17.31245026 184.09776733 17.13911438 184.96990967 C16.30571404 188.95465754 16.30571404 188.95465754 16 193 C32.5 193 49 193 66 193 C61.85295432 169.45521124 57.4755652 145.95646737 53.04223633 122.46411133 C52.21317905 118.06899353 51.38824249 113.67313063 50.56665039 109.27661133 C49.56197604 103.90046167 48.55062918 98.52560912 47.534338 93.15164375 C47.15124345 91.1198662 46.77049499 89.0876448 46.39216042 87.05497551 C45.86789726 84.24103744 45.33506157 81.42885438 44.80004883 78.61694336 C44.64678131 77.78339828 44.49351379 76.94985321 44.33560181 76.09104919 C43.64542574 72.50815839 43.04848087 70.0727213 41 67 Z " fill="#000000" transform="translate(1213,8)"/>
<path d="M0 0 C25.41 0 50.82 0 77 0 C80.4458346 14.93194995 80.4458346 14.93194995 81.71400452 21.87446594 C81.93624456 23.07097417 81.93624456 23.07097417 82.1629743 24.29165429 C82.64919294 26.91310118 83.13137292 29.53527316 83.61352539 32.1574707 C83.96514492 34.0577607 84.31702504 35.9580025 84.66914368 37.85820007 C85.42210976 41.9244909 86.17330973 45.99110245 86.92311287 50.05797768 C88.10958261 56.49293554 89.30038816 62.92708648 90.49180603 69.36112976 C92.80404576 81.85113193 95.11219822 94.34188754 97.4196701 106.8327713 C100.36018233 122.75017783 103.30172079 138.66739274 106.24864763 154.5836131 C107.43206795 160.9760752 108.61300724 167.36898909 109.79201329 173.76226676 C110.52585016 177.73882511 111.26175669 181.71499844 111.99821281 185.69107246 C112.33851128 187.53071241 112.67794881 189.37051186 113.01644897 191.21048355 C113.47963966 193.72757522 113.94593978 196.24407229 114.41297913 198.76045227 C114.54518122 199.48312595 114.67738332 200.20579963 114.81359154 200.95037252 C115.69713871 205.68692327 116.79413009 210.33477076 118 215 C118.13416478 214.26678654 118.26832956 213.53357307 118.40655994 212.77814102 C121.73169234 194.60625999 125.05694098 176.43440024 128.3823061 158.2625618 C129.99068241 149.47339078 131.59902231 140.6842131 133.20727539 131.89501953 C133.51999954 130.18598679 133.83272398 128.47695409 134.14544868 126.76792145 C134.76846805 123.36313478 135.39146385 119.9583438 136.01444817 116.55355072 C137.55827551 108.11634512 139.10262343 99.67923527 140.64797974 91.24230957 C141.25574953 87.92391547 141.86348147 84.60551444 142.47119141 81.28710938 C142.61970747 80.47617986 142.76822354 79.66525034 142.92124009 78.8297472 C144.79606153 68.59172237 146.66550156 58.35273609 148.5283289 48.11252213 C149.43849686 43.10930327 150.35056064 38.10643065 151.26315922 33.10365462 C151.86530285 29.80191841 152.46594436 26.49992495 153.06456947 23.19754791 C153.711154 19.63087334 154.36136907 16.06487927 155.01245117 12.49902344 C155.20122267 11.4519648 155.38999416 10.40490616 155.58448601 9.32611847 C155.75783533 8.38074974 155.93118465 7.43538101 156.10978699 6.46136475 C156.33312603 5.23226191 156.33312603 5.23226191 156.56097698 3.9783287 C157 2 157 2 158 0 C182.42 0 206.84 0 232 0 C231.34540788 5.89132904 230.62573535 11.22404011 229.18432617 16.89038086 C229.00127143 17.62991627 228.81821669 18.36945168 228.62961483 19.13139725 C228.02281272 21.57726221 227.40786493 24.02100229 226.79296875 26.46484375 C226.35588391 28.22059142 225.91936467 29.97647998 225.48336792 31.73249817 C224.54810084 35.49519833 223.60941414 39.2570218 222.66799927 43.01818848 C220.3924099 52.11093092 218.13487848 61.2081665 215.87511253 70.30485153 C215.09726632 73.43525851 214.31872947 76.56549317 213.54011536 79.69570923 C208.85438007 98.54181136 204.24915334 117.40705066 199.66342163 136.27769089 C192.07585521 167.49442306 184.40405741 198.68991173 176.6875 229.875 C176.44236286 230.86586105 176.19722572 231.85672211 175.94466019 232.87760925 C174.30127307 239.52019831 172.65685519 246.16253149 171.01171875 252.8046875 C170.80689503 253.63193455 170.6020713 254.45918159 170.3910408 255.31149673 C166.61808628 270.54706805 162.80680489 285.77278042 159 301 C130.29 301 101.58 301 72 301 C67.40351335 283.76317506 67.40351335 283.76317506 65.44824219 275.69458008 C65.2223472 274.76822282 64.99645222 273.84186556 64.76371193 272.88743687 C64.02314075 269.84852814 63.28495198 266.80904663 62.546875 263.76953125 C62.01317933 261.57660344 61.47937305 259.38370255 60.94546509 257.19082642 C59.51015833 251.29330303 58.07720437 245.39521041 56.64488983 239.49695969 C55.74481604 235.7911565 54.8440888 232.0855127 53.94317627 228.37991333 C44.60822287 189.98051113 35.34460267 151.56429011 26.14775848 113.13158417 C24.94010193 108.08501073 23.73195942 103.03855378 22.5234375 97.9921875 C22.2899762 97.0172937 22.05651489 96.0423999 21.815979 95.03796387 C18.69475584 82.00956517 15.5447822 68.98850522 12.36085892 55.97528648 C11.73697074 53.4253527 11.11369759 50.8752693 10.49057007 48.32514954 C8.78297234 41.33914386 7.07317873 34.35373532 5.34886742 27.3718338 C4.83661573 25.29431045 4.32686177 23.21619348 3.81820679 21.13778687 C3.20988504 18.65303057 2.59726881 16.16931983 1.97940063 13.68692017 C1.7154953 12.60437958 1.45158997 11.52183899 1.1796875 10.40649414 C0.95007324 9.4756752 0.72045898 8.54485626 0.48388672 7.58583069 C0 5 0 5 0 0 Z " fill="#000000" transform="translate(665,8)"/>
<path d="M0 0 C23.76 0 47.52 0 72 0 C79.76430206 18.76372997 87.4831992 37.53709955 95.0625 56.375 C96.44835736 59.81750163 97.83462368 63.25983694 99.2217865 66.70181274 C100.07070481 68.80840205 100.91887112 70.91529463 101.76612854 73.02255249 C103.78779295 78.04096832 105.84395027 83.03776597 108 88 C112.33320735 78.89204761 116.2526347 69.6718592 120.00823975 60.31506348 C120.9609587 57.9415574 121.91774039 55.56972313 122.87548828 53.19824219 C124.57040685 48.99992016 126.26208432 44.80030074 127.95294189 40.6003418 C130.75502017 33.64145267 133.56164545 26.68441013 136.37356567 19.72949219 C137.36439687 17.27625272 138.35206934 14.82175723 139.33959961 12.3671875 C139.94239678 10.87493989 140.54533496 9.38274922 141.1484375 7.890625 C141.56143349 6.86053314 141.56143349 6.86053314 141.98277283 5.80963135 C143.88616173 1.11383827 143.88616173 1.11383827 145 0 C147.17805719 -0.09429342 149.3592128 -0.11742538 151.53930664 -0.11352539 C152.22220261 -0.11367142 152.90509857 -0.11381744 153.60868835 -0.1139679 C155.87587614 -0.11326876 158.14298274 -0.1054764 160.41015625 -0.09765625 C161.97814387 -0.09579207 163.54613207 -0.09436817 165.11412048 -0.09336853 C169.24876503 -0.08954334 173.38337466 -0.07971306 177.51800537 -0.06866455 C181.73400398 -0.05845044 185.95000822 -0.05387091 190.16601562 -0.04882812 C198.44402647 -0.03809079 206.7220089 -0.02101436 215 0 C214.19887277 4.50871012 212.5993237 8.2582973 210.5703125 12.3359375 C210.22442581 13.04288254 209.87853912 13.74982758 209.52217102 14.47819519 C208.780499 15.9924194 208.0361998 17.50535913 207.28952026 19.01712036 C206.11101378 21.40331881 204.93942834 23.79280016 203.76977539 26.18334961 C202.21609794 29.35836068 200.6603831 32.53235807 199.10302734 35.70556641 C196.5184457 40.97717924 193.96740144 46.26443754 191.4375 51.5625 C191.01484863 52.44663574 190.59219727 53.33077148 190.15673828 54.24169922 C187.56348649 59.68108572 184.99694733 65.1326758 182.44140625 70.58984375 C181.12793242 73.3933831 179.81408061 76.19674502 178.5 79 C178.00580063 80.05471497 178.00580063 80.05471497 177.50161743 81.1307373 C170.85651177 95.30003003 164.01388147 109.37064625 157.11914062 123.41992188 C156.52901688 124.62457344 156.52901688 124.62457344 155.92697144 125.8535614 C155.19124063 127.35502485 154.45397888 128.8557395 153.71487427 130.35554504 C152.79635486 132.2304469 151.89724169 134.11482302 151 136 C150.57122559 136.86262451 150.14245117 137.72524902 149.70068359 138.61401367 C148.19815098 143.73047752 150.30786959 148.13952475 152.484375 152.76171875 C153.00064453 153.86644531 153.51691406 154.97117188 154.04882812 156.109375 C154.61021484 157.29015625 155.17160156 158.4709375 155.75 159.6875 C156.33841357 160.93855626 156.92629506 162.1898629 157.51367188 163.44140625 C161.98391779 172.94431022 166.54782069 182.40261597 171.12426758 191.85473633 C174.97636512 199.82497141 178.7284806 207.83729451 182.4375 215.875 C186.86322326 225.46406707 191.38673507 235.00021444 196 244.5 C202.3226497 257.52199599 208.45896997 270.6238 214.51171875 283.7734375 C215.5722185 286.07257869 216.63701761 288.36936357 217.70703125 290.6640625 C218.25746094 291.84742188 218.80789062 293.03078125 219.375 294.25 C219.87773437 295.32765625 220.38046875 296.4053125 220.8984375 297.515625 C222 300 222 300 222 301 C197.25 301 172.5 301 147 301 C139.125 282.1875 139.125 282.1875 135.3347168 273.13153076 C131.95322049 265.05253233 128.57055877 256.97402604 125.18460083 248.89689636 C123.55542723 245.01042132 121.92683348 241.12370342 120.29827881 237.23696899 C119.52207903 235.38493928 118.74559425 233.53302898 117.96881104 231.6812439 C110.16129061 213.06823176 110.16129061 213.06823176 107 205 C104.65873708 208.51189439 103.14415658 212.20226656 101.53515625 216.08203125 C101.18968246 216.90820953 100.84420868 217.73438782 100.48826599 218.58560181 C99.34319412 221.32659846 98.20281403 224.06952095 97.0625 226.8125 C96.26582785 228.72217122 95.46894965 230.6317565 94.671875 232.54125977 C90.31002481 243.00018193 85.97525265 253.4702421 81.65234375 263.9453125 C81.21874039 264.99593369 80.78513702 266.04655487 80.33839417 267.12901306 C78.22913021 272.24141291 76.12245994 277.35486122 74.01977539 282.4699707 C73.63088638 283.4144809 73.24199738 284.35899109 72.84132385 285.3321228 C72.1141949 287.09815 71.38823841 288.86466058 70.66368103 290.63174438 C70.34089676 291.41512177 70.01811249 292.19849915 69.68554688 293.00561523 C69.40674683 293.68422104 69.12794678 294.36282684 68.84069824 295.06199646 C67.96749571 297.07492988 66.98126282 299.03747436 66 301 C42.24 301 18.48 301 -6 301 C-3.75024627 294.2507388 -3.75024627 294.2507388 -2.25097656 291.12304688 C-1.91537216 290.41832245 -1.57976776 289.71359802 -1.23399353 288.98751831 C-0.87318192 288.23882477 -0.5123703 287.49013123 -0.140625 286.71875 C0.4305027 285.52235397 0.4305027 285.52235397 1.01316833 284.30178833 C1.83048821 282.59039658 2.64933747 280.87973455 3.46957397 279.16973877 C5.6445356 274.63485798 7.80788557 270.09443945 9.97265625 265.5546875 C10.40600784 264.64665375 10.83935944 263.73862 11.2858429 262.80307007 C14.9613788 255.09622404 18.58728349 247.36726454 22.1875 239.625 C26.7609492 229.79462058 31.35723308 219.97557364 35.97866821 210.16766357 C39.95710725 201.72386746 43.93338278 193.27903458 47.89776611 184.82862854 C48.52431606 183.49329371 49.15154511 182.15827728 49.77947998 180.82359314 C51.28053434 177.62768387 52.76445386 174.42589512 54.21191406 171.20532227 C56.58766831 165.95775008 58.91290903 160.93342366 62.140625 156.15234375 C64.89059217 151.88667335 67.09516841 148.19819882 67 143 C64.73418113 134.66674915 60.34333164 127.12994312 56.12507629 119.65116882 C52.55688253 113.3120741 49.5497638 106.75550982 46.5625 100.125 C41.99312699 90.19048397 37.28514784 80.33175913 32.5 70.5 C27.12288221 59.45150454 21.87360514 48.35438559 16.73168945 37.19384766 C14.04044623 31.36205227 11.31854209 25.54821911 8.5234375 19.765625 C7.96358154 18.60724121 7.40372559 17.44885742 6.8269043 16.25537109 C5.75647752 14.04820367 4.68257433 11.8427179 3.60473633 9.63916016 C3.13060303 8.66253418 2.65646973 7.6859082 2.16796875 6.6796875 C1.74797607 5.82101074 1.3279834 4.96233398 0.89526367 4.07763672 C0 2 0 2 0 0 Z " fill="#000000" transform="translate(2084,8)"/>
<path d="M0 0 C23.43 0 46.86 0 71 0 C77.89075322 14.92996531 77.89075322 14.92996531 80.59375 21.7890625 C80.90284302 22.56462494 81.21193604 23.34018738 81.53039551 24.13925171 C82.52352886 26.63321706 83.51179187 29.12907955 84.5 31.625 C85.19494775 33.37254093 85.890266 35.11993456 86.5859375 36.8671875 C88.0132208 40.45285562 89.43884072 44.03917824 90.86328125 47.62597656 C93.91768107 55.31316134 96.99291027 62.99200631 100.06762695 70.67108154 C101.54595436 74.3637065 103.02294644 78.05686537 104.5 81.75 C104.9846875 82.96171875 105.469375 84.1734375 105.96875 85.421875 C106.3090625 86.27265625 106.649375 87.1234375 107 88 C108.59603068 85.60595398 109.64156178 83.6724982 110.71728516 81.05566406 C111.04643417 80.25947662 111.37558319 79.46328918 111.71470642 78.64297485 C112.06924393 77.7759494 112.42378143 76.90892395 112.7890625 76.015625 C113.16507095 75.10340179 113.54107941 74.19117859 113.92848206 73.25131226 C115.16377803 70.25214942 116.394422 67.25110138 117.625 64.25 C118.47539696 62.18266871 119.32606668 60.11544961 120.17700195 58.04833984 C122.3596691 52.74368645 124.53831299 47.4373916 126.71551514 42.13049316 C127.96348259 39.08899871 129.21228023 36.04784671 130.46142578 33.00683594 C134.9797051 22.00677022 139.49090631 11.00384333 144 0 C167.43 0 190.86 0 215 0 C212.46394416 6.34013959 209.93098864 12.43738349 206.91015625 18.5234375 C206.33951195 19.68557266 206.33951195 19.68557266 205.75733948 20.8711853 C204.94756882 22.52024571 204.13635684 24.16859904 203.3237915 25.81628418 C197.28586724 38.06510398 191.31050476 50.33310794 185.625 62.75 C178.81277171 77.60213763 171.59748584 92.254952 164.39221191 106.91928101 C163.1197484 109.51415561 161.85366378 112.11206797 160.58837891 114.71044922 C158.78420837 118.41352766 156.94707948 122.0983933 155.09521484 125.77783203 C154.16069335 127.6654726 153.2265982 129.55332432 152.29296875 131.44140625 C151.8474617 132.31135727 151.40195465 133.18130829 150.94294739 134.07762146 C148.64294786 138.77574776 147.23666682 141.80507106 149 147 C149.8998534 149.15999032 150.88175549 151.2867577 151.921875 153.3828125 C152.21794647 153.98602325 152.51401794 154.58923401 152.81906128 155.21072388 C153.45674495 156.50835981 154.09783401 157.80432683 154.74200439 159.09875488 C156.47186846 162.57608018 158.17582868 166.06608945 159.8828125 169.5546875 C160.23117157 170.2650415 160.57953064 170.97539551 160.93844604 171.70727539 C164.26708351 178.50951415 167.45912481 185.37042236 170.625 192.25 C174.83242591 201.37551355 179.11980686 210.45613156 183.5 219.5 C188.45449597 229.73002723 193.27294268 240.01628269 198.03491211 250.3371582 C202.68575974 260.38830917 207.48291328 270.36490756 212.33178711 280.32177734 C221 298.15432511 221 298.15432511 221 301 C196.58 301 172.16 301 147 301 C143.93081005 294.86162011 141.00356606 288.88991037 138.42578125 282.56640625 C138.10401413 281.78632202 137.78224701 281.00623779 137.45072937 280.20251465 C136.7600679 278.52711742 136.07104546 276.85104372 135.38354492 275.17434692 C133.53019664 270.65477738 131.66436052 266.14035811 129.80078125 261.625 C129.41342804 260.68543961 129.02607483 259.74587921 128.62698364 258.77784729 C124.51910565 248.8190984 120.36696108 238.87897819 116.2059021 228.94235229 C115.011886 226.09088532 113.8190325 223.23893381 112.6262207 220.38696289 C111.89674169 218.64465442 111.16717294 216.90238352 110.4375 215.16015625 C110.10288254 214.36001099 109.76826508 213.55986572 109.42350769 212.73547363 C107.79749079 208.82896032 107.79749079 208.82896032 106 205 C101.03551795 215.37211303 96.64296878 225.9539642 92.28167725 236.5897522 C90.62050539 240.64022558 88.95271451 244.68796277 87.28533936 248.73588562 C86.43612494 250.79770392 85.58720737 252.85964451 84.73858643 254.92170715 C80.95975041 264.10362931 77.16810268 273.28016175 73.35690308 282.44869995 C72.70399345 284.02049237 72.05207152 285.59269545 71.40115356 287.16531372 C70.50675112 289.32603201 69.60928362 291.48545023 68.7109375 293.64453125 C67.95756104 295.45981323 67.95756104 295.45981323 67.18896484 297.31176758 C66 300 66 300 65 301 C62.79132169 301.09432985 60.57958479 301.11742431 58.36889648 301.11352539 C57.67624695 301.11367142 56.98359741 301.11381744 56.2699585 301.1139679 C53.97030554 301.11326874 51.67073263 301.10547628 49.37109375 301.09765625 C47.78068588 301.09579208 46.19027743 301.09436817 44.59986877 301.09336853 C40.4060407 301.08954329 36.21224705 301.07971295 32.01843262 301.06866455 C27.74211086 301.05845057 23.46578356 301.05387094 19.18945312 301.04882812 C10.79295292 301.03809069 2.39648074 301.02101419 -6 301 C-5.19663261 296.50218148 -3.62023683 292.71360883 -1.640625 288.62109375 C-1.30025208 287.9056691 -0.95987915 287.19024445 -0.60919189 286.45314026 C0.12341957 284.91478247 0.85855058 283.37762251 1.59594727 281.84155273 C3.16233843 278.57854157 4.71671637 275.30985773 6.27172852 272.04141235 C7.0606656 270.38338501 7.85021857 268.72565059 8.64038086 267.06820679 C11.97600519 260.06781224 15.24938161 253.04031026 18.5 246 C23.42645453 235.3497412 28.4198257 224.73250399 33.4375 214.125 C39.93499354 200.38596826 46.42061702 186.6419278 52.80859375 172.8515625 C54.88641475 168.36800946 57.00442224 163.9075189 59.16015625 159.4609375 C60.10681611 157.47397991 61.0534334 155.48700203 62 153.5 C62.44013428 152.61586426 62.88026855 151.73172852 63.33374023 150.82080078 C63.71860596 150.00337402 64.10347168 149.18594727 64.5 148.34375 C64.8403125 147.64443359 65.180625 146.94511719 65.53125 146.22460938 C66.57236339 141.28365872 63.32968277 136.39633866 61.19921875 132.0546875 C60.64121582 130.91032227 60.08321289 129.76595703 59.50830078 128.58691406 C59.06408783 127.68156921 59.06408783 127.68156921 58.61090088 126.75793457 C57.01411045 123.50187107 55.43034417 120.23949927 53.84765625 116.9765625 C53.52307434 116.30757935 53.19849243 115.63859619 52.86407471 114.94934082 C49.70430284 108.4197379 46.65746429 101.83958624 43.625 95.25 C38.87245044 84.93782277 33.97615495 74.70557041 29 64.5 C22.80631427 51.79604677 16.77526346 39.02904122 10.86328125 26.19140625 C9.07555094 22.31054915 7.26599103 18.44235372 5.41796875 14.58984375 C4.8446582 13.39198242 4.8446582 13.39198242 4.25976562 12.16992188 C3.57193509 10.73788125 2.87961642 9.3079827 2.18164062 7.88085938 C0.82144364 5.04387709 0 3.19224579 0 0 Z " fill="#000000" transform="translate(323,8)"/>
<path d="M0 0 C110.91224205 0 110.91224205 0 125 4.0625 C125.7336377 4.27310059 126.46727539 4.48370117 127.22314453 4.70068359 C141.37744599 9.04770885 152.79817455 16.38501651 163 27 C163.66257813 27.65484375 164.32515625 28.3096875 165.0078125 28.984375 C181.99524276 46.80975025 186.57302015 73.05981874 186.35351562 96.82617188 C185.52599654 125.22189822 177.09011197 150.72602991 156.3125 170.6875 C130.68200339 192.86621146 99.47103944 192 67 192 C67 227.97 67 263.94 67 301 C44.89 301 22.78 301 0 301 C0 201.67 0 102.34 0 0 Z M67 58 C67 83.74 67 109.48 67 136 C91.83302161 136.97416096 91.83302161 136.97416096 111.5625 125.9375 C120.41254525 116.85197683 121.26161336 105.55424582 121.24658203 93.5925293 C121.109792 83.28362019 118.97496604 74.89590311 112 67 C98.61419546 55.79718509 84.39064953 58 67 58 Z " fill="#000000" transform="translate(0,8)"/>
<path d="M0 0 C48.18 0 96.36 0 146 0 C146 20.79 146 41.58 146 63 C120.59 63 95.18 63 69 63 C69 82.8 69 102.6 69 123 C92.43 123 115.86 123 140 123 C140 142.47 140 161.94 140 182 C116.57 182 93.14 182 69 182 C69 221.27 69 260.54 69 301 C46.23 301 23.46 301 0 301 C0 201.67 0 102.34 0 0 Z " fill="#000000" transform="translate(1000,8)"/>
<path d="M0 0 C22.77 0 45.54 0 69 0 C69 99.33 69 198.66 69 301 C46.23 301 23.46 301 0 301 C0 201.67 0 102.34 0 0 Z " fill="#000000" transform="translate(570,8)"/>
<path d="M0 0 C22.77 0 45.54 0 69 0 C69 99.33 69 198.66 69 301 C46.23 301 23.46 301 0 301 C0 201.67 0 102.34 0 0 Z " fill="#000000" transform="translate(221,8)"/>
</svg>
