<?xml version="1.0" encoding="UTF-8"?>
<svg version="1.1" xmlns="http://www.w3.org/2000/svg" width="900" height="900">
<path d="M0 0 C18.48 0 36.96 0 56 0 C56 8.91 56 17.82 56 27 C64.91 27 73.82 27 83 27 C83 63.63 83 100.26 83 138 C64.52 138 46.04 138 27 138 C27 129.09 27 120.18 27 111 C18.09 111 9.18 111 0 111 C0 101.43 0 91.86 0 82 C8.91 82 17.82 82 27 82 C27 73.09 27 64.18 27 55 C36.24 55 45.48 55 55 55 C55 46.09 55 37.18 55 28 C36.85 28 18.7 28 0 28 C0 18.76 0 9.52 0 0 Z M28 83 C28 91.91 28 100.82 28 110 C36.91 110 45.82 110 55 110 C55 101.09 55 92.18 55 83 C46.09 83 37.18 83 28 83 Z " fill="#E1097F" transform="translate(211,381)"/>
<path d="M0 0 C18.48 0 36.96 0 56 0 C56 8.91 56 17.82 56 27 C64.91 27 73.82 27 83 27 C83 63.63 83 100.26 83 138 C64.85 138 46.7 138 28 138 C28 129.09 28 120.18 28 111 C18.76 111 9.52 111 0 111 C0 101.43 0 91.86 0 82 C9.24 82 18.48 82 28 82 C28 73.09 28 64.18 28 55 C36.91 55 45.82 55 55 55 C55 46.09 55 37.18 55 28 C36.85 28 18.7 28 0 28 C0 18.76 0 9.52 0 0 Z M29 83 C29 91.91 29 100.82 29 110 C37.58 110 46.16 110 55 110 C55 101.09 55 92.18 55 83 C46.42 83 37.84 83 29 83 Z " fill="#F05B26" transform="translate(733,381)"/>
<path d="M0 0 C18.48 0 36.96 0 56 0 C56 9.24 56 18.48 56 28 C65.24 28 74.48 28 84 28 C84 55.39 84 82.78 84 111 C74.43 111 64.86 111 55 111 C55 83.94 55 56.88 55 29 C46.42 29 37.84 29 29 29 C29 56.06 29 83.12 29 111 C19.43 111 9.86 111 0 111 C0 74.37 0 37.74 0 0 Z " fill="#8D2680" transform="translate(348,408)"/>
<path d="M0 0 C9.57 0 19.14 0 29 0 C29 8.91 29 17.82 29 27 C37.91 27 46.82 27 56 27 C56 36.57 56 46.14 56 56 C47.09 56 38.18 56 29 56 C29 73.82 29 91.64 29 110 C37.91 110 46.82 110 56 110 C56 119.24 56 128.48 56 138 C37.52 138 19.04 138 0 138 C0 110.94 0 83.88 0 56 C-8.91 56 -17.82 56 -27 56 C-27 46.43 -27 36.86 -27 27 C-18.09 27 -9.18 27 0 27 C0 18.09 0 9.18 0 0 Z " fill="#00A098" transform="translate(513,381)"/>
<path d="M0 0 C27.72 0 55.44 0 84 0 C84 9.24 84 18.48 84 28 C65.85 28 47.7 28 29 28 C29 36.91 29 45.82 29 55 C37.91 55 46.82 55 56 55 C56 64.24 56 73.48 56 83 C47.09 83 38.18 83 29 83 C29 101.15 29 119.3 29 138 C19.43 138 9.86 138 0 138 C0 92.46 0 46.92 0 0 Z " fill="#8CC13F" transform="translate(73,381)"/>
<path d="M0 0 C9.57 0 19.14 0 29 0 C29 18.15 29 36.3 29 55 C37.91 55 46.82 55 56 55 C56 64.24 56 73.48 56 83 C37.52 83 19.04 83 0 83 C0 55.61 0 28.22 0 0 Z " fill="#383877" transform="translate(623,436)"/>
<path d="M0 0 C9.57 0 19.14 0 29 0 C29 9.24 29 18.48 29 28 C19.43 28 9.86 28 0 28 C0 18.76 0 9.52 0 0 Z " fill="#383877" transform="translate(623,381)"/>
</svg>
