<?xml version="1.0" encoding="UTF-8"?>
<svg version="1.1" xmlns="http://www.w3.org/2000/svg" width="2084" height="750">
<path d="M0 0 C6.9862493 5.47702723 13.28206071 11.52960776 19.54080969 17.80399859 C20.6810577 18.93978522 21.82173274 20.07514328 22.96279335 21.21011353 C26.07413842 24.30737691 29.17929925 27.41077425 32.28338927 30.51530635 C35.64116676 33.87142696 39.00464691 37.22182471 42.36731726 40.57304156 C49.70722445 47.89016986 57.03972671 55.21468856 64.3707841 62.54068196 C68.95310873 67.11974227 73.53706249 71.69716927 78.12135893 76.27425539 C90.82873548 88.96207787 103.53453909 101.65146943 116.23359782 114.34761775 C117.04504325 115.15887561 117.85648869 115.97013348 118.69252339 116.80597492 C120.33728855 118.45037385 121.98205245 120.09477405 123.62681509 121.73917551 C124.44320732 122.55538494 125.25959956 123.37159436 126.10073096 124.21253741 C126.91812482 125.02975073 127.73551869 125.84696405 128.57768207 126.6889414 C141.82427616 139.93199339 155.08257364 153.16326073 168.34607185 166.38938041 C181.98268956 179.98787682 195.60988901 193.5957512 209.22761059 207.21317101 C216.8659885 214.85096533 224.50824056 222.48478845 232.16080672 230.10836947 C238.6758077 236.59880587 245.18205894 243.09785953 251.67728127 249.60809155 C254.98756698 252.92552436 258.30166613 256.23888237 261.62691885 259.54131854 C264.67815993 262.57182404 267.71736264 265.61390799 270.74786925 268.66514377 C271.83893259 269.75967417 272.93412756 270.85010714 274.0341068 271.93567689 C286.33037344 284.08134056 298.23205068 299.67202416 299.01845556 317.69642413 C298.98590348 319.61699704 298.9533514 321.53756996 298.92079931 323.45814288 C298.26809561 323.23528613 297.61539191 323.01242938 296.9429093 322.78281939 C285.25516439 318.98318572 273.27319963 316.46287197 261.29189306 313.77845538 C258.80372076 313.21698361 256.31565598 312.65503522 253.82769018 312.0926491 C248.48079513 310.88497259 243.13324858 309.68024992 237.78508765 308.47819293 C229.23399627 306.55614308 220.68456437 304.62677565 212.13539892 302.69617999 C209.1926705 302.03171239 206.24993472 301.36727731 203.30719763 300.70284808 C202.57240685 300.536935 201.83761607 300.37102192 201.0805589 300.20008117 C195.8037451 299.00867515 190.52671707 297.81822105 185.24961096 296.62811053 C157.64450804 290.40197324 130.04876723 284.13495546 102.45529085 277.85751879 C93.47240194 275.81395685 84.48918308 273.7718524 75.50567764 271.73100245 C51.55440309 266.2897804 27.60380757 260.84571798 3.65924841 255.37499774 C-4.35218112 253.54470387 -12.3644291 251.71800605 -20.37692922 249.89240515 C-26.63057529 248.4672262 -32.88310409 247.03728179 -39.1347627 245.60341132 C-42.921555 244.73610625 -46.70940397 243.87349058 -50.49756807 243.01219904 C-52.21581386 242.62053665 -53.93362525 242.2269621 -55.65093035 241.83119547 C-69.96727617 238.53342089 -83.87624157 236.07235997 -98.64170069 236.14564288 C-99.85406397 236.15128253 -101.06642725 236.15692217 -102.31552881 236.16273272 C-116.31098262 236.34901907 -129.63986432 237.89419247 -143.03598779 242.022596 C-143.88457078 242.28088435 -144.73315376 242.53917269 -145.60745138 242.80528796 C-157.39540417 246.43052694 -169.07815738 250.38237121 -180.77060694 254.30189288 C-183.32933554 255.15690236 -185.88815478 256.01163537 -188.44710535 256.86597979 C-195.15683819 259.10674454 -201.86532122 261.35123146 -208.57352442 263.59657061 C-219.84206631 267.3682648 -231.11200316 271.13578967 -242.38288993 274.90047061 C-243.68380656 275.33500998 -244.98470907 275.76959163 -246.2855975 276.20421541 C-267.56570389 283.31362419 -288.87920887 290.31384717 -310.22246355 297.23113692 C-321.18565295 300.78644572 -332.12903969 304.4011424 -343.06479639 308.03992999 C-345.34828197 308.79885757 -347.63250215 309.55557736 -349.91733545 310.3104378 C-353.34385762 311.44252574 -356.76838553 312.580461 -360.19248194 313.71986163 C-361.20780496 314.05418704 -362.22312799 314.38851244 -363.26921839 314.73296893 C-368.08914319 316.34472977 -372.55558214 318.1147883 -377.07920069 320.45814288 C-377.73920069 320.45814288 -378.39920069 320.45814288 -379.07920069 320.45814288 C-377.08407957 303.93139336 -370.91504217 290.48496481 -359.54702753 278.33709109 C-359.02039309 277.77088307 -358.49375865 277.20467505 -357.95116559 276.62130921 C-352.63359638 270.93221166 -347.16517256 265.39833264 -341.65647119 259.89497149 C-340.56139058 258.79729755 -339.46652143 257.69941262 -338.37184185 256.60133874 C-335.40291614 253.62445459 -332.43096466 250.65060835 -329.45842952 247.67732894 C-326.23781114 244.4548405 -323.02003888 241.22951195 -319.80184168 238.00460589 C-312.78612358 230.97538865 -305.76670447 223.94987529 -298.74644274 216.92519629 C-294.35699921 212.53297881 -289.96828881 208.1400293 -285.57970423 203.74695361 C-273.40832605 191.56339907 -261.23601309 179.38078017 -249.06024164 167.20161593 C-247.89477646 166.0358214 -247.89477646 166.0358214 -246.70576653 164.84647547 C-245.92704802 164.06753869 -245.14832952 163.2886019 -244.34601349 162.48606098 C-242.7683048 160.90790884 -241.19059767 159.32975515 -239.61289209 157.75159991 C-238.83031292 156.96879931 -238.04773375 156.18599871 -237.24144006 155.37947688 C-224.5478064 142.6818911 -211.86094798 129.97755871 -199.17697501 117.27032331 C-186.12827807 104.1978896 -173.07393992 91.13111148 -160.01395172 78.06995809 C-152.69164661 70.74673811 -145.37175586 63.4211412 -138.05809778 56.08928454 C-131.8350852 49.85084032 -125.60691697 43.61760078 -119.37206417 37.39098904 C-116.19511816 34.21793719 -113.0205972 31.04255897 -109.85265154 27.86051905 C-106.94641205 24.94146844 -104.03318681 22.02957568 -101.11450708 19.12296531 C-100.06628498 18.07668764 -99.02053234 17.02792801 -97.97768211 15.97629598 C-72.22308633 -9.98120117 -32.59360093 -24.17019008 0 0 Z " fill="#781BF8" transform="translate(413.07920068502426,33.54185712337494)"/>
<path d="M0 0 C0.88473763 0.27823215 0.88473763 0.27823215 1.78734875 0.56208515 C8.26422931 2.55727284 14.77283485 4.18739725 21.38208008 5.6784668 C22.48658634 5.93055531 23.59109261 6.18264381 24.72906876 6.44237137 C28.40848536 7.28126381 32.08899711 8.1152442 35.76953125 8.94921875 C38.41750622 9.55145807 41.06524577 10.1547296 43.71299744 10.75794983 C50.1581058 12.22563871 56.60404384 13.68965157 63.05026335 15.15245157 C70.63247286 16.87320181 78.21379838 18.59783178 85.79510283 20.32256436 C101.81114353 23.96600303 117.82840909 27.60403719 133.84603345 31.24050629 C134.65217261 31.42352386 135.45831177 31.60654143 136.28887939 31.79510498 C137.09402501 31.97789627 137.89917062 32.16068756 138.72871459 32.34901798 C146.6676608 34.15145576 154.60637371 35.95492008 162.54505169 37.75853884 C187.55103272 43.4397225 212.55718563 49.12014458 237.56567383 54.7902832 C238.65214881 55.03661855 238.65214881 55.03661855 239.76057279 55.28793037 C246.20060887 56.74804566 252.64067389 58.20803326 259.08078575 59.66781425 C275.29961697 63.34417526 291.51723726 67.0257693 307.73223877 70.71899414 C314.77208884 72.32240188 321.8125769 73.92299794 328.85329819 75.52257538 C334.14142512 76.72420492 339.42871194 77.92943412 344.71531296 79.13775826 C347.85886381 79.85526932 351.00325461 80.56904045 354.14791107 81.28168869 C355.55180523 81.60062374 356.95535704 81.92107099 358.35849762 82.24330521 C388.10486902 89.07168032 418.05090674 89.55606591 447.29248047 80.31958008 C448.52897779 79.93212773 449.76547512 79.54467539 451.03944206 79.14548206 C469.62108889 73.29336183 488.08285109 67.06324148 506.56013727 60.89186072 C511.99676658 59.07667524 517.43447913 57.26473998 522.87203979 55.4523468 C531.97478484 52.41778877 541.076761 49.38093426 550.17822266 46.3425293 C560.67332896 42.83889342 571.16949275 39.33844101 581.66625321 35.8397643 C592.91249656 32.09124202 604.15797735 28.34043626 615.403234 24.58895516 C618.62024152 23.51591184 621.83738933 22.44329009 625.05456924 21.37076378 C630.10979797 19.68535135 635.16451099 17.99840092 640.21883774 16.31028557 C642.06528613 15.69383463 643.91190027 15.07787987 645.75869751 14.46247482 C658.32818109 10.28427821 658.32818109 10.28427821 670.77218437 5.7487154 C673.16071341 4.94598808 675.52180937 4.44386871 678 4 C676.76320066 27.91145385 660.61400661 43.53360476 644.68574524 59.46815491 C643.56580881 60.59211675 642.44608002 61.71628552 641.32653874 62.84064096 C638.27490149 65.90412757 635.22021203 68.96455412 632.16494286 72.024418 C628.86042629 75.33493462 625.55871317 78.64824554 622.25654602 81.96110535 C614.29780514 89.94425907 606.33421442 97.92256594 598.36972621 105.89998522 C596.11802101 108.15540866 593.86644316 110.41095915 591.61490989 112.66655421 C577.61026751 126.69642504 563.60402863 140.72469992 549.59299946 154.74819279 C546.35503016 157.98909135 543.1170771 161.23000615 539.87915039 164.47094727 C539.07446503 165.27637867 538.26977967 166.08181008 537.44070991 166.9116485 C524.39947914 179.96553892 511.36857238 193.02968531 498.34184859 206.0980509 C484.946653 219.53571277 471.54200487 232.96388727 458.12816972 246.38294309 C450.60525118 253.90926893 443.08652048 261.43967595 435.57842445 268.98079109 C429.18673723 275.40054355 422.78653454 281.81165199 416.3752173 288.21180279 C413.10838635 291.47346509 409.84565055 294.73895354 406.59386444 298.01562119 C403.60966954 301.0224579 400.61388151 304.01724154 397.60894062 307.00334113 C396.53125485 308.07824787 395.45767188 309.15728964 394.38896791 310.24112678 C380.27470381 324.54274873 363.76917055 334.9006186 343.14404297 335.29272461 C318.26641015 335.45567854 301.07996211 326.89328856 283.42368889 309.68095779 C281.41101463 307.68886423 279.4107809 305.68462779 277.41159058 303.67901611 C276.28698043 302.55815145 275.16194115 301.43771723 274.03651536 300.31767154 C270.97304304 297.26633301 267.91574155 294.20887875 264.85951638 291.15028381 C261.55154013 287.84189696 258.23783489 284.53925619 254.92492676 281.23580933 C248.44660107 274.77404013 241.97378746 268.30677709 235.50317632 261.83728364 C230.2413038 256.57636385 224.97784991 251.31703141 219.71329117 246.05879974 C204.76748801 231.13059197 189.82586681 216.19821656 174.8896098 201.26045743 C174.08573095 200.45649866 173.2818521 199.6525399 172.45361328 198.82421875 C171.64874737 198.01927108 170.84388147 197.21432341 170.01462568 196.38498339 C156.96716989 183.33671449 143.90976216 170.29845523 130.84781359 157.26469579 C117.41642625 143.86206516 103.99254025 130.45196131 90.57638657 117.03408122 C83.05185059 109.50888246 75.52429157 101.98676728 67.98864365 94.4726944 C61.57434979 88.07664868 55.16708357 81.67366334 48.76868401 75.26171592 C45.50777163 71.99429319 42.24379154 68.73010685 38.97092056 65.47465897 C35.96818128 62.48774014 32.97502503 59.49153945 29.98887159 56.48804173 C28.91379027 55.40991027 27.83540413 54.33506066 26.75319444 53.26408473 C12.91360368 39.55855317 0.19706156 22.70349816 -0.0300293 2.30224609 C-0.02011963 1.54250488 -0.01020996 0.78276367 0 0 Z " fill="#23D8C6" transform="translate(34,365)"/>
<path d="M0 0 C1.3468689 0.00323273 1.3468689 0.00323273 2.72094727 0.00653076 C61.89100464 0.2337442 119.26057696 20.79416715 161.5625 62.875 C162.69013779 64.01823752 163.81621736 65.1630287 164.9375 66.3125 C161.06192694 71.07391834 156.89235835 75.46766592 152.5625 79.8125 C151.76936401 80.61240356 151.76936401 80.61240356 150.96020508 81.4284668 C148.15933431 84.21913558 145.30239398 86.87741859 142.2890625 89.4375 C138.69315952 92.54607144 135.35777951 95.87508027 132.046875 99.28125 C131.2719722 100.07505066 131.2719722 100.07505066 130.48141479 100.8848877 C128.33144431 103.08911415 126.18338141 105.2946848 124.05371094 107.51855469 C122.47935658 109.15917772 120.88981422 110.7836938 119.296875 112.40625 C118.81764587 112.91442261 118.33841675 113.42259521 117.84466553 113.94616699 C116.46777344 115.33398437 116.46777344 115.33398437 113.9375 117.3125 C111.06159242 117.19803287 110.22603807 116.5770445 108.10546875 114.6328125 C107.12513672 113.54613281 107.12513672 113.54613281 106.125 112.4375 C80.3290159 85.83803443 42.08073864 74.05999149 5.9375 72.3125 C5.07125 72.26996094 4.205 72.22742188 3.3125 72.18359375 C-18.70614681 71.66753172 -41.06299835 76.15688399 -61.0625 85.3125 C-61.71025391 85.60495605 -62.35800781 85.89741211 -63.02539062 86.19873047 C-99.28621785 102.74382772 -126.42044485 134.06344028 -140.31176758 171.16918945 C-143.71265737 180.69668854 -146.10647087 190.39637374 -148.0625 200.3125 C-148.30871094 201.53453125 -148.55492187 202.7565625 -148.80859375 204.015625 C-155.65167676 245.35728514 -144.47108977 288.77466265 -120.27539062 322.64306641 C-95.32852464 356.98015771 -59.65840244 377.32927584 -18.0625 384.3125 C18.94719056 389.98245149 58.27497455 383.12842297 90.9375 365.3125 C91.2675 334.6225 91.5975 303.9325 91.9375 272.3125 C58.9375 272.3125 25.9375 272.3125 -8.0625 272.3125 C-8.0625 248.5525 -8.0625 224.7925 -8.0625 200.3125 C50.0175 200.3125 108.0975 200.3125 167.9375 200.3125 C168.34053034 250.60620859 168.34053034 250.60620859 168.42578125 271.67773438 C168.48512435 286.22879263 168.55489534 300.77927195 168.69189453 315.32983398 C168.79162248 325.92690928 168.85609522 336.52351507 168.87838495 347.1210466 C168.89141319 352.73174008 168.92198938 358.34109047 168.99480057 363.95135307 C169.06281828 369.2352139 169.08358875 374.51718224 169.06857681 379.80143929 C169.07132183 381.7376701 169.09113496 383.67396595 169.12955475 385.6098175 C169.40513818 400.21537635 169.40513818 400.21537635 165.76237106 405.42056465 C163.26111626 407.71172086 160.81736661 409.53266666 157.9375 411.3125 C156.72405361 412.21058019 155.51433046 413.11377726 154.3125 414.02734375 C153.1946381 414.778956 152.06948359 415.51982923 150.9375 416.25 C150.30996826 416.65984131 149.68243652 417.06968262 149.03588867 417.49194336 C91.30380064 454.61502679 17.91365294 467.35269058 -49.1953125 452.96044922 C-91.11494687 443.48712585 -129.05390918 424.12309494 -160.0625 394.3125 C-160.95654541 393.45930176 -160.95654541 393.45930176 -161.86865234 392.58886719 C-203.80121253 352.37600705 -227.97709869 295.87419634 -229.34765625 237.82421875 C-230.43026785 177.77426442 -213.0407796 118.16029859 -171.2890625 73.69140625 C-169.32662685 71.59469868 -167.47007701 69.44922686 -165.625 67.25 C-151.88388471 51.57306939 -134.01217535 39.61326014 -116.0625 29.3125 C-115.42634766 28.94286133 -114.79019531 28.57322266 -114.13476562 28.19238281 C-79.6412795 8.3063932 -39.51209234 -0.17149664 0 0 Z " fill="#000000" transform="translate(1065.0625,132.6875)"/>
<path d="M0 0 C0.79792969 0.69609375 1.59585937 1.3921875 2.41796875 2.109375 C3.37058594 2.92921875 4.32320312 3.7490625 5.3046875 4.59375 C34.96568761 30.61762135 52.53521244 68.00753568 56.41796875 107.109375 C56.56601765 109.91842962 56.60412873 112.72253397 56.62109375 115.53515625 C56.62815338 116.31610657 56.63521301 117.09705688 56.64248657 117.90167236 C56.86961996 150.39506029 56.86961996 150.39506029 53.41796875 164.109375 C53.11197754 165.36476074 53.11197754 165.36476074 52.79980469 166.64550781 C49.8027538 178.66424901 45.86227306 189.98872358 40.41796875 201.109375 C40.12196777 201.72973633 39.8259668 202.35009766 39.52099609 202.98925781 C23.19844377 236.90418825 -7.31509838 263.80559882 -42.65234375 276.5390625 C-74.02653357 287.03145672 -109.40765364 287.74996748 -139.58203125 273.109375 C-152.45852753 266.43426823 -162.20306501 258.48834124 -172.58203125 248.109375 C-172.91203125 305.199375 -173.24203125 362.289375 -173.58203125 421.109375 C-198.99203125 421.109375 -224.40203125 421.109375 -250.58203125 421.109375 C-250.58203125 274.259375 -250.58203125 127.409375 -250.58203125 -23.890625 C-225.17203125 -23.890625 -199.76203125 -23.890625 -173.58203125 -23.890625 C-173.25203125 -12.340625 -172.92203125 -0.790625 -172.58203125 11.109375 C-169.61203125 7.149375 -166.64203125 3.189375 -163.58203125 -0.890625 C-121.66701318 -47.77861131 -44.53364478 -37.29785995 0 0 Z M-163.59375 68.43359375 C-179.71493432 87.62289855 -186.59027171 111.25924055 -184.58203125 136.109375 C-181.44580448 159.7718957 -169.56275601 181.38835084 -150.58203125 196.109375 C-131.03089432 210.15988625 -107.50773669 217.00106892 -83.53125 213.61328125 C-67.0392999 210.58205055 -52.43535069 203.8320541 -39.58203125 193.109375 C-38.61652344 192.34496094 -37.65101563 191.58054687 -36.65625 190.79296875 C-20.33286751 177.13232036 -10.62702667 154.88753833 -8.58203125 134.109375 C-7.22281913 111.24122731 -13.06778373 87.99580109 -28.48681641 70.46264648 C-30.7882528 67.94367925 -33.17068874 65.5240666 -35.58203125 63.109375 C-36.38640625 62.29339844 -37.19078125 61.47742188 -38.01953125 60.63671875 C-53.71312777 45.58841814 -75.08115382 38.21872385 -96.58203125 37.734375 C-122.19117725 38.31127055 -146.58489561 49.15169233 -163.59375 68.43359375 Z " fill="#000000" transform="translate(1727.58203125,306.890625)"/>
<path d="M0 0 C25.41 0 50.82 0 77 0 C77 29.37 77 58.74 77 89 C106.7 89 136.4 89 167 89 C167 111.77 167 134.54 167 158 C137.3 158 107.6 158 77 158 C77.09072356 180.96591102 77.09072356 180.96591102 77.20898438 203.93164062 C77.26335732 213.30442518 77.31477496 222.67715635 77.34643555 232.05004883 C77.36951349 238.87796138 77.40301943 245.70573238 77.44870156 252.53353244 C77.47250273 256.14399027 77.49131681 259.75430906 77.49761391 263.36484337 C77.5048649 267.40968912 77.53541228 271.45405521 77.56762695 275.4987793 C77.56619186 276.67698746 77.56475677 277.85519562 77.5632782 279.06910706 C77.69254677 290.61761856 79.50743957 301.28157621 86 311 C86.598125 311.9075 87.19625 312.815 87.8125 313.75 C95.10068333 321.24641714 104.65887565 324.06596946 114.9375 324.375 C125.66616591 324.02935999 134.19789279 320.74510525 143.3828125 315.42578125 C146 314 146 314 148 314 C148.79557292 315.77473958 149.59114583 317.54947917 150.38671875 319.32421875 C150.90717773 320.48493896 151.42763672 321.64565918 151.96386719 322.84155273 C153.12327468 325.42776657 154.28132804 328.01458133 155.43847656 330.60180664 C158.20985006 336.79530145 160.98749387 342.98548893 163.80427551 349.15849304 C165.0024858 351.78535015 166.195584 354.4145147 167.38833618 357.04385376 C167.9594944 358.29906675 168.53317743 359.55313416 169.10946655 360.80599976 C169.91796835 362.56433007 170.71698405 364.32701271 171.515625 366.08984375 C171.97227539 367.08878662 172.42892578 368.08772949 172.89941406 369.11694336 C174.03327522 372.08716661 174.5878129 374.85459204 175 378 C143.96274763 394.90147406 107.45345353 402.61737131 72.75 393.1875 C46.32927212 385.01891709 25.50957214 369.16088051 12.1875 344.875 C2.77936395 326.8425669 -0.33895466 307.36374353 -0.22705078 287.19189453 C-0.22648482 285.77112842 -0.22680682 284.35036172 -0.22793579 282.92959595 C-0.22850311 279.12057615 -0.216851 275.31168565 -0.20278788 271.50269556 C-0.19017544 267.50423517 -0.18910182 263.50577091 -0.18673706 259.5072937 C-0.18055288 251.95704753 -0.16418409 244.40686017 -0.14403808 236.85663974 C-0.12158303 228.25189218 -0.11066164 219.64714162 -0.10064721 211.04237199 C-0.07981468 193.36154134 -0.04317735 175.68079118 0 158 C-19.47 158 -38.94 158 -59 158 C-59 135.23 -59 112.46 -59 89 C-39.53 89 -20.06 89 0 89 C0 59.63 0 30.26 0 0 Z " fill="#000000" transform="translate(1874,194)"/>
<path d="M0 0 C25.41 0 50.82 0 77 0 C77 99 77 198 77 300 C51.59 300 26.18 300 0 300 C0 201 0 102 0 0 Z " fill="#000000" transform="translate(1316,283)"/>
<path d="M0 0 C10.40642672 11.61647634 14.17521919 24.72561238 13.5625 40.06640625 C12.65637787 53.1355847 6.87533331 64.23207946 -2.50390625 73.25 C-14.75153141 83.6520926 -28.036978 86.41212206 -43.60693359 85.6328125 C-55.95709019 84.54108595 -67.20778805 78.12828258 -75.640625 69.24609375 C-85.18856763 56.92119114 -88.84780487 43.36943123 -87.34765625 27.890625 C-85.48054584 15.75440734 -80.07113494 5.59047528 -70.81640625 -2.5625 C-70.21699219 -3.11550781 -69.61757812 -3.66851562 -69 -4.23828125 C-48.63053564 -21.75677086 -18.50874747 -17.99208293 0 0 Z " fill="#000000" transform="translate(1391.81640625,151.5625)"/>
</svg>
