<?xml version="1.0" encoding="UTF-8"?>
<svg version="1.1" xmlns="http://www.w3.org/2000/svg" width="864" height="708">
<path d="M0 0 C285.12 0 570.24 0 864 0 C864 233.64 864 467.28 864 708 C578.88 708 293.76 708 0 708 C0 474.36 0 240.72 0 0 Z " fill="#212020" transform="translate(0,0)"/>
<path d="M0 0 C16.17 0 32.34 0 49 0 C49.33 26.07 49.66 52.14 50 79 C56.93 69.1 56.93 69.1 64 59 C68.45819869 52.63114472 72.9339548 46.28975653 77.5 40 C80.84832298 35.37828462 84.19392681 30.75866577 87.4375 26.0625 C89.74775236 22.75728173 92.09702675 19.48736877 94.49609375 16.24609375 C95.13168213 15.38556396 95.76727051 14.52503418 96.42211914 13.63842773 C97.71001111 11.89842918 98.99952657 10.15963094 100.29077148 8.42211914 C100.88317627 7.62281982 101.47558105 6.82352051 102.0859375 6 C102.6226709 5.278125 103.1594043 4.55625 103.71240234 3.8125 C105.05011697 2.02761193 105.05011697 2.02761193 106 0 C123.49 0 140.98 0 159 0 C157.35996905 4.10007738 156.49317299 5.89658378 153.8125 9.0625 C149.64157274 14.14179617 145.68319092 19.35973533 141.75 24.625 C141.10184326 25.4919751 140.45368652 26.3589502 139.78588867 27.25219727 C138.48081338 28.99883573 137.17620333 30.74582193 135.87207031 32.49316406 C133.12888107 36.16649051 130.37710858 39.8333542 127.625 43.5 C124.95046634 47.06443035 122.27685419 50.62950395 119.609375 54.19921875 C114.84619165 60.56956012 110.02499334 66.89169219 105.1640625 73.1875 C104.44992187 74.115625 103.73578125 75.04375 103 76 C102.10087891 77.09248047 102.10087891 77.09248047 101.18359375 78.20703125 C99.69245357 80.02531905 99.69245357 80.02531905 100.4375 82.6875 C102.15446557 86.327467 104.21879359 89.48631619 106.5 92.79296875 C108.06460181 95.09505214 109.44441872 97.46980144 110.7890625 99.90625 C113.18734406 104.05295617 115.81657921 108.06981409 118.390625 112.109375 C120 115 120 115 120 118 C120.66 118 121.32 118 122 118 C122.3403125 118.64324219 122.680625 119.28648437 123.03125 119.94921875 C126.38664663 126.20489173 129.97920657 132.25627824 133.73046875 138.28125 C136.41265167 142.63396771 138.95189848 147.0679298 141.5 151.5 C145.17762778 157.88953403 148.935382 164.21255631 152.82421875 170.4765625 C155.66833136 175.06701214 158.46091318 179.68847654 161.25 184.3125 C162.01171509 185.56728149 162.01171509 185.56728149 162.78881836 186.84741211 C163.27616455 187.65702393 163.76351074 188.46663574 164.265625 189.30078125 C164.69649414 190.01403564 165.12736328 190.72729004 165.57128906 191.4621582 C167.5124531 194.91027853 169.25502587 198.44944052 171 202 C122.88295599 206.05180041 122.88295599 206.05180041 114.1640625 199.72509766 C109.08604544 194.27450869 106.49965161 187.96385965 104.78466797 180.77075195 C103.94273444 177.79778879 102.58905409 175.63068153 101 173 C101 172.01 101 171.02 101 170 C100.34 170 99.68 170 99 170 C97.17992918 166.75418468 95.37028615 163.50267099 93.5625 160.25 C93.04623047 159.32960938 92.52996094 158.40921875 91.99804688 157.4609375 C91.50498047 156.57148438 91.01191406 155.68203125 90.50390625 154.765625 C90.04830322 153.94868164 89.5927002 153.13173828 89.12329102 152.29003906 C88.08706061 150.17748935 87.4637072 148.29777301 87 146 C86.34 146 85.68 146 85 146 C84.6596875 145.36835938 84.319375 144.73671875 83.96875 144.0859375 C79.76248526 136.32224674 75.40217711 128.65353127 71 121 C67.69466016 124.18545705 64.84121017 127.38187197 62.1875 131.125 C61.28064453 132.39730469 61.28064453 132.39730469 60.35546875 133.6953125 C60.01327805 134.19251297 59.67108734 134.68971344 59.31852722 135.20198059 C58.28959532 136.60509119 57.18548776 137.95315806 56.05513 139.27592468 C50.1736531 146.49141485 48.84133887 151.69865105 49 160.88671875 C48.98912354 162.06974075 48.97824707 163.25276276 48.96704102 164.47163391 C48.94106521 168.21120635 48.96961916 171.94800436 49 175.6875 C48.99190068 178.23894635 48.98021666 180.79038398 48.96484375 183.34179688 C48.92845121 189.56289969 48.96596131 195.77730139 49 202 C32.83 202 16.66 202 0 202 C0 135.34 0 68.68 0 0 Z " fill="#FB3655" transform="translate(327,270)"/>
<path d="M0 0 C42.24 0 84.48 0 128 0 C128 13.53 128 27.06 128 41 C101.6 41 75.2 41 48 41 C48 53.21 48 65.42 48 78 C70.44 78 92.88 78 116 78 C116 91.53 116 105.06 116 119 C93.89 119 71.78 119 49 119 C49 132.86 49 146.72 49 161 C54.83558594 160.98839844 60.67117188 160.97679687 66.68359375 160.96484375 C70.37044381 160.95973699 74.05728954 160.95492322 77.74414062 160.95117188 C83.60197856 160.94518343 89.45980093 160.93808311 95.31762695 160.92456055 C100.03787978 160.91373166 104.75811592 160.90772316 109.4783802 160.90512276 C111.28338954 160.90326851 113.08839792 160.89964791 114.89340019 160.89426994 C117.41259644 160.88705948 119.9317229 160.88600906 122.45092773 160.88647461 C123.58164955 160.8810817 123.58164955 160.8810817 124.73521423 160.87557983 C129.88594784 160.88594784 129.88594784 160.88594784 131 162 C131 175.2 131 188.4 131 202 C87.77 202 44.54 202 0 202 C0 135.34 0 68.68 0 0 Z " fill="#FD3168" transform="translate(514,270)"/>
<path d="M0 0 C16.83 0 33.66 0 51 0 C57.7943662 15.85352113 57.7943662 15.85352113 59.9375 21.625 C60.18000488 22.27774902 60.42250977 22.93049805 60.67236328 23.60302734 C62.94158591 29.75370124 65.09720712 35.94401211 67.24707031 42.13720703 C69.4996247 48.61422813 71.83044474 55.06034506 74.1875 61.5 C76.63520755 68.18881372 79.02882908 74.87930533 81.2109375 81.66015625 C82.04993891 84.14808617 83.00417928 86.57106336 84 89 C86.10333195 85.84500207 87.22871953 82.96587882 88.5390625 79.41015625 C88.78093796 78.75826828 89.02281342 78.10638031 89.27201843 77.43473816 C89.7903047 76.03743556 90.30697202 74.63953159 90.82217407 73.24108887 C92.17105032 69.58071036 93.5318713 65.92479737 94.89453125 62.26953125 C95.1634166 61.54800873 95.43230194 60.82648621 95.70933533 60.08309937 C97.82130159 54.43509677 100.03276899 48.83246253 102.3125 43.25 C105.25993 36.02231698 107.92639638 28.72784106 110.3918457 21.32128906 C112.8780676 13.97345401 115.90511712 7.22139338 119 0 C135.5 0 152 0 169 0 C166.75412294 6.73763118 166.75412294 6.73763118 165.1953125 9.734375 C164.69451172 10.71071899 164.69451172 10.71071899 164.18359375 11.70678711 C163.83425781 12.38104736 163.48492188 13.05530762 163.125 13.75 C160.52630938 18.85085513 158.14920637 23.91513786 156.11328125 29.26953125 C154.30241245 33.71092526 152.19589676 38.01200232 150.13061523 42.33959961 C147.82850238 47.18288884 145.66183005 52.06602289 143.5625 57 C140.78689607 63.49307461 137.6179211 69.71465976 134.19555664 75.890625 C131.78954845 80.28472432 129.8493806 84.73017185 128.03393555 89.39794922 C126.25545698 93.87375195 124.24779731 98.24375463 122.25 102.625 C121.858125 103.49511719 121.46625 104.36523438 121.0625 105.26171875 C120.65515625 106.15761719 120.2478125 107.05351562 119.828125 107.9765625 C119.42088196 108.87597565 119.01363892 109.77538879 118.59405518 110.70205688 C117.46265656 113.04280915 116.30887024 115.24005833 115.00897217 117.47958374 C109.26768695 127.61119499 107.84358145 135.787821 108 147.3125 C107.99245602 148.90391002 107.98139975 150.4953068 107.96704102 152.08666992 C107.93896667 156.21669287 107.95765348 160.34513819 107.98712158 164.47509766 C108.01255485 169.4614643 107.97807428 174.44775588 107.95399475 179.43408203 C107.92419461 186.95696283 107.96903713 194.47602293 108 202 C92.16 202 76.32 202 60 202 C60.06703125 197.03195312 60.1340625 192.06390625 60.203125 186.9453125 C60.21889551 183.73670342 60.2310122 180.52886062 60.23046875 177.3203125 C60.22994453 172.26264022 60.24060676 167.20733897 60.33251953 162.15039062 C60.70442557 140.69363153 59.42360196 124.4222996 48.42640686 105.46456909 C45.57377525 100.53574556 43.12123224 95.40049717 40.81640625 90.1953125 C40.44580078 89.36386719 40.07519531 88.53242188 39.69335938 87.67578125 C38.9429894 85.98323689 38.19298586 84.29053003 37.44335938 82.59765625 C35.57646998 78.41090602 33.65610964 74.27402399 31.578125 70.1875 C28.54504957 64.1869925 25.88090161 58.03352038 23.1875 51.875 C19.55819502 43.63325621 15.84793084 35.47855842 11.74047852 27.46484375 C9.37931296 22.83359063 7.21072873 18.13653147 5.125 13.375 C4.83842529 12.72313721 4.55185059 12.07127441 4.2565918 11.3996582 C2.62597138 7.62857247 1.30515807 3.9154742 0 0 Z " fill="#FC307B" transform="translate(654,270)"/>
<path d="M0 0 C16.17 0 32.34 0 49 0 C49 53.13 49 106.26 49 161 C74.74 161 100.48 161 127 161 C127 174.53 127 188.06 127 202 C85.09 202 43.18 202 0 202 C0 135.34 0 68.68 0 0 Z " fill="#FA3A37" transform="translate(81,270)"/>
<path d="M0 0 C15.84 0 31.68 0 48 0 C48 66.66 48 133.32 48 202 C32.16 202 16.32 202 0 202 C0 135.34 0 68.68 0 0 Z " fill="#FC3846" transform="translate(238,270)"/>
<path d="M0 0 C42.24 0 84.48 0 128 0 C128 13.53 128 27.06 128 41 C101.6 41 75.2 41 48 41 C48 40.67 48 40.34 48 40 C74.07 40 100.14 40 127 40 C127 27.13 127 14.26 127 1 C85.42 1 43.84 1 1 1 C1 67 1 133 1 201 C43.24 201 85.48 201 129 201 C129 188.46 129 175.92 129 163 C102.27 163 75.54 163 48 163 C48 148.15 48 133.3 48 118 C70.44 118 92.88 118 116 118 C116 118.33 116 118.66 116 119 C93.89 119 71.78 119 49 119 C49 132.86 49 146.72 49 161 C54.83558594 160.98839844 60.67117188 160.97679687 66.68359375 160.96484375 C70.37044381 160.95973699 74.05728954 160.95492322 77.74414062 160.95117188 C83.60197856 160.94518343 89.45980093 160.93808311 95.31762695 160.92456055 C100.03787978 160.91373166 104.75811592 160.90772316 109.4783802 160.90512276 C111.28338954 160.90326851 113.08839792 160.89964791 114.89340019 160.89426994 C117.41259644 160.88705948 119.9317229 160.88600906 122.45092773 160.88647461 C123.58164955 160.8810817 123.58164955 160.8810817 124.73521423 160.87557983 C129.88594784 160.88594784 129.88594784 160.88594784 131 162 C131 175.2 131 188.4 131 202 C87.77 202 44.54 202 0 202 C0 135.34 0 68.68 0 0 Z " fill="#CC3D65" transform="translate(514,270)"/>
<path d="M0 0 C22.44 0 44.88 0 68 0 C68 0.33 68 0.66 68 1 C45.89 1 23.78 1 1 1 C1 14.86 1 28.72 1 43 C6.83558594 42.98839844 12.67117188 42.97679687 18.68359375 42.96484375 C22.37044381 42.95973699 26.05728954 42.95492322 29.74414062 42.95117188 C35.60197856 42.94518343 41.45980093 42.93808311 47.31762695 42.92456055 C52.03787978 42.91373166 56.75811592 42.90772316 61.4783802 42.90512276 C63.28338954 42.90326851 65.08839792 42.89964791 66.89340019 42.89426994 C69.41259644 42.88705948 71.9317229 42.88600906 74.45092773 42.88647461 C75.20474228 42.88287933 75.95855682 42.87928406 76.73521423 42.87557983 C81.88594784 42.88594784 81.88594784 42.88594784 83 44 C83 57.2 83 70.4 83 84 C54.95 84 26.9 84 -2 84 C-2 83.67 -2 83.34 -2 83 C25.39 83 52.78 83 81 83 C81 70.46 81 57.92 81 45 C54.27 45 27.54 45 0 45 C0 30.15 0 15.3 0 0 Z " fill="#B3395D" transform="translate(562,388)"/>
<path d="M0 0 C1.13583456 3.71727674 0.66670026 5.47051709 -1 9 C-1.66 9 -2.32 9 -3 9 C-3.33 33.75 -3.66 58.5 -4 84 C-4.66 84 -5.32 84 -6 84 C-6.1397281 74.81976887 -6.24598631 65.63991018 -6.31087303 56.45884323 C-6.34203385 52.19450767 -6.3842218 47.93090568 -6.45263672 43.66699219 C-6.51838168 39.54313318 -6.55382036 35.41997452 -6.56926346 31.29563141 C-6.58025208 29.73126465 -6.60170787 28.16693126 -6.63438034 26.60286713 C-6.83798264 16.4414341 -5.60703078 8.81087808 0 0 Z " fill="#65223C" transform="translate(768,388)"/>
<path d="M0 0 C16.83 0 33.66 0 51 0 C50.67 0.66 50.34 1.32 50 2 C34.49 1.67 18.98 1.34 3 1 C5.2657127 7.21112221 5.2657127 7.21112221 8 13.0625 C13.38904553 23.65332692 13.38904553 23.65332692 12 28 C10.36996725 24.4606286 8.74687946 20.91811408 7.125 17.375 C6.66480469 16.37597656 6.20460938 15.37695312 5.73046875 14.34765625 C5.06337891 12.88779297 5.06337891 12.88779297 4.3828125 11.3984375 C3.97434082 10.50817871 3.56586914 9.61791992 3.14501953 8.70068359 C1.94125525 5.86144256 0.97520962 2.92562887 0 0 Z " fill="#DB4678" transform="translate(654,270)"/>
<path d="M0 0 C6.31381941 6.31381941 7.53149928 14.57048191 7.57997417 23.13023853 C7.56612989 25.43497426 7.52768908 27.73854051 7.48828125 30.04296875 C7.47893544 31.66391398 7.47182771 33.2848735 7.46684265 34.90583801 C7.44791145 39.13607994 7.39893447 43.36543945 7.34332275 47.59533691 C7.29182714 51.92606678 7.26926446 56.25694169 7.24414062 60.58789062 C7.19079878 69.05899503 7.10565924 77.52938721 7 86 C6.67 86 6.34 86 6 86 C5.99857498 85.13493332 5.99714996 84.26986664 5.99568176 83.37858582 C5.97777575 75.18485414 5.93593849 66.99165725 5.86790943 58.79818249 C5.8337687 54.58681957 5.80854974 50.37581443 5.80444336 46.16430664 C5.80013241 42.09204264 5.77144141 38.02058395 5.72656822 33.94857216 C5.71368176 32.40307639 5.7092538 30.85748381 5.71384621 29.31194115 C5.73317753 20.82261537 5.30168248 13.8401005 1.06889343 6.21308899 C0 4 0 4 0 0 Z " fill="#481526" transform="translate(707,386)"/>
<path d="M0 0 C1.07461739 0.00539291 1.07461739 0.00539291 2.17094421 0.01089478 C2.92211517 0.01074875 3.67328613 0.01060272 4.44721985 0.01045227 C6.94166404 0.01115153 9.43603448 0.01894452 11.9304657 0.02676392 C13.65539509 0.02862805 15.38032501 0.03005197 17.10525513 0.03105164 C21.65418448 0.03487719 26.20308211 0.04470779 30.7519989 0.05575562 C35.39025951 0.06596893 40.02852522 0.07054908 44.66679382 0.07559204 C53.77422967 0.08633003 62.88164192 0.1034069 71.98905945 0.12442017 C71.98905945 0.45442017 71.98905945 0.78442017 71.98905945 1.12442017 C70.58964363 1.12988861 70.58964363 1.12988861 69.16195679 1.13546753 C60.37714434 1.17238147 51.5926836 1.23011419 42.80813885 1.30832291 C38.29168922 1.34786118 33.7754364 1.38001829 29.25883484 1.39541626 C24.90141004 1.41054133 20.54452611 1.44491205 16.18734169 1.49272919 C14.52359018 1.50758605 12.85976146 1.51546364 11.19594383 1.51630402 C8.86817383 1.51866264 6.54191215 1.54564945 4.21440125 1.57852173 C3.1786219 1.57097618 3.1786219 1.57097618 2.12191772 1.5632782 C-1.17597217 1.63551366 -2.62820188 1.72549502 -4.96252441 4.15853882 C-5.30850174 4.80727966 -5.65447906 5.45602051 -6.01094055 6.12442017 C-6.05366155 4.45830111 -6.05157887 2.79059132 -6.01094055 1.12442017 C-4.32590356 -0.56061683 -2.24834171 0.00476033 0 0 Z " fill="#2D1216" transform="translate(569.0109405517578,310.8755798339844)"/>
<path d="M0 0 C3.08236365 2.78407039 3.95206337 3.80825346 5 8 C22.16 7.67 39.32 7.34 57 7 C56.505 5.515 56.505 5.515 56 4 C56.66 4 57.32 4 58 4 C58.495 6.475 58.495 6.475 59 9 C51.22209364 9.0253109 43.44419786 9.04285035 35.66625977 9.05493164 C33.01912031 9.059967 30.37198365 9.06679563 27.72485352 9.07543945 C23.92463493 9.08753979 20.12445305 9.09323622 16.32421875 9.09765625 C15.13664474 9.10281754 13.94907074 9.10797882 12.72550964 9.11329651 C11.0741375 9.11340981 11.0741375 9.11340981 9.3894043 9.11352539 C7.93379341 9.11685631 7.93379341 9.11685631 6.44877625 9.12025452 C4 9 4 9 1 8 C1.33 7.01 1.66 6.02 2 5 C1.34 4.67 0.68 4.34 0 4 C0 2.68 0 1.36 0 0 Z " fill="#4C1B24" transform="translate(440,464)"/>
<path d="M0 0 C1.43151936 4.29455809 0.60328042 7.81103695 -1 12 C-3.375 13.8125 -3.375 13.8125 -6 15 C-7.0209375 16.051875 -7.0209375 16.051875 -8.0625 17.125 C-10.15179262 19.14689608 -11.23189143 19.43601946 -14 20 C-9.5488194 13.17148431 -4.83313622 6.56276111 0 0 Z " fill="#25211B" transform="translate(471,290)"/>
<path d="M0 0 C0.99 0 1.98 0 3 0 C3.66 2.31 4.32 4.62 5 7 C21.17 6.67 37.34 6.34 54 6 C54.33 5.34 54.66 4.68 55 4 C55.66 5.32 56.32 6.64 57 8 C39.51 8 22.02 8 4 8 C2.68 5.36 1.36 2.72 0 0 Z " fill="#DA4365" transform="translate(441,464)"/>
<path d="M0 0 C0.68707555 2.49064888 1 4.37886292 1 7 C0.01 7.495 0.01 7.495 -1 8 C-1.65213292 10.02463255 -1.65213292 10.02463255 -2 12 C-2.66 12 -3.32 12 -4 12 C-3.67 12.99 -3.34 13.98 -3 15 C-3.99609375 17.26171875 -3.99609375 17.26171875 -5.4375 19.6875 C-5.91058594 20.49574219 -6.38367188 21.30398438 -6.87109375 22.13671875 C-7.42990234 23.05904297 -7.42990234 23.05904297 -8 24 C-8.66 24 -9.32 24 -10 24 C-9.31953501 20.87675977 -8.2565548 18.14116265 -6.93359375 15.234375 C-6.3293457 13.90019531 -6.3293457 13.90019531 -5.71289062 12.5390625 C-5.29201172 11.61867188 -4.87113281 10.69828125 -4.4375 9.75 C-4.01275391 8.81414062 -3.58800781 7.87828125 -3.15039062 6.9140625 C-2.10324814 4.6079959 -1.05302193 2.30338632 0 0 Z " fill="#41172A" transform="translate(779,364)"/>
<path d="M0 0 C1.13583456 3.71727674 0.66670026 5.47051709 -1 9 C-1.66 9 -2.32 9 -3 9 C-3.33 17.91 -3.66 26.82 -4 36 C-4.33 36 -4.66 36 -5 36 C-5.14688806 31.87538319 -5.23460044 27.75145076 -5.3125 23.625 C-5.35439453 22.46871094 -5.39628906 21.31242187 -5.43945312 20.12109375 C-5.55161773 12.17984003 -4.26505162 6.72983793 0 0 Z " fill="#3C1527" transform="translate(768,388)"/>
<path d="M0 0 C1.05856387 2.71741092 1.03883965 3.88228861 0.109375 6.69921875 C-0.33921875 7.68535156 -0.7878125 8.67148437 -1.25 9.6875 C-3.22176559 14.16231246 -4.95323095 18.59572151 -6.421875 23.2578125 C-7 25 -7 25 -8 27 C-8.66 27 -9.32 27 -10 27 C-8.11209076 21.1265046 -6.03969313 15.3384654 -3.875 9.5625 C-3.47643799 8.49708984 -3.47643799 8.49708984 -3.06982422 7.41015625 C-1.12938977 2.25877954 -1.12938977 2.25877954 0 0 Z " fill="#DB3C76" transform="translate(760,304)"/>
<path d="M0 0 C0.66 0 1.32 0 2 0 C2.4125 1.155 2.825 2.31 3.25 3.5 C4.61541243 7.15183419 6.24541152 10.57954426 8.01171875 14.05078125 C12.38296975 22.67233955 12.38296975 22.67233955 11 27 C9.34544965 23.44148536 7.70291536 19.87755003 6.0625 16.3125 C5.35963867 14.80139648 5.35963867 14.80139648 4.64257812 13.25976562 C3.9706543 11.79506836 3.9706543 11.79506836 3.28515625 10.30078125 C2.87144775 9.40528564 2.45773926 8.50979004 2.03149414 7.5871582 C1.02166025 5.0543275 0.44217565 2.68478898 0 0 Z " fill="#D73D70" transform="translate(655,271)"/>
<path d="M0 0 C1.47192444 3.86851935 0.48854933 6.52472708 -0.75 10.375 C-1.09546875 11.47585938 -1.4409375 12.57671875 -1.796875 13.7109375 C-2.98278858 16.95294799 -4.39496874 19.94675089 -6 23 C-6.66 23 -7.32 23 -8 23 C-5.81659819 15.13620323 -3.00714974 7.58324716 0 0 Z " fill="#CF3970" transform="translate(749,332)"/>
<path d="M0 0 C0.66 0.33 1.32 0.66 2 1 C1.46375 2.03125 0.9275 3.0625 0.375 4.125 C-2.71417886 10.28113342 -5.32678847 16.65557798 -8 23 C-9.09658936 19.71023192 -8.79953138 18.28696233 -8 15 C-7.34 15 -6.68 15 -6 15 C-5.67 12.36 -5.34 9.72 -5 7 C-4.01 7 -3.02 7 -2 7 C-2 5.02 -2 3.04 -2 1 C-1.34 0.67 -0.68 0.34 0 0 Z " fill="#DA397A" transform="translate(813,288)"/>
<path d="M0 0 C0.66 1.32 1.32 2.64 2 4 C1.21625 4.20625 0.4325 4.4125 -0.375 4.625 C-3.28776859 5.78204111 -3.28776859 5.78204111 -4.125 8.9375 C-4.41375 9.948125 -4.7025 10.95875 -5 12 C-6.5625 13.75 -6.5625 13.75 -8 15 C-8.33 15.66 -8.66 16.32 -9 17 C-9.66 17 -10.32 17 -11 17 C-11 17.66 -11 18.32 -11 19 C-11.66 18.67 -12.32 18.34 -13 18 C-8.78150301 11.90938897 -4.49280355 5.8916618 0 0 Z " fill="#CC3B59" transform="translate(424,283)"/>
<path d="M0 0 C0.99 0.495 0.99 0.495 2 1 C2.66666667 3 3.33333333 5 4 7 C4.66 7.33 5.32 7.66 6 8 C6 10.31 6 12.62 6 15 C6.66 15 7.32 15 8 15 C8 16.98 8 18.96 8 21 C5.93767301 18.93767301 5.43191516 17.84405969 4.4921875 15.15625 C4.22792969 14.40472656 3.96367188 13.65320313 3.69140625 12.87890625 C3.42199219 12.09386719 3.15257812 11.30882812 2.875 10.5 C2.59785156 9.71496094 2.32070313 8.92992187 2.03515625 8.12109375 C0 2.27628541 0 2.27628541 0 0 Z " fill="#4B162A" transform="translate(725,323)"/>
<path d="M0 0 C0.99 0 1.98 0 3 0 C1.59601721 4.10110762 -0.37087038 6.98089159 -3.125 10.3125 C-3.84945313 11.19550781 -4.57390625 12.07851563 -5.3203125 12.98828125 C-5.87460937 13.65214844 -6.42890625 14.31601562 -7 15 C-7.66 14.67 -8.32 14.34 -9 14 C-9 13.34 -9 12.68 -9 12 C-8.01 12 -7.02 12 -6 12 C-6 11.01 -6 10.02 -6 9 C-5.34 9 -4.68 9 -4 9 C-4 8.34 -4 7.68 -4 7 C-3.34 7 -2.68 7 -2 7 C-1.855625 6.21625 -1.71125 5.4325 -1.5625 4.625 C-1 2 -1 2 0 0 Z " fill="#DF3E63" transform="translate(469,288)"/>
<path d="M0 0 C0.66 0.33 1.32 0.66 2 1 C0.88689705 4.31661969 -0.24244625 7.62747685 -1.375 10.9375 C-1.69210937 11.88302734 -2.00921875 12.82855469 -2.3359375 13.80273438 C-2.6453125 14.70185547 -2.9546875 15.60097656 -3.2734375 16.52734375 C-3.55622559 17.35999756 -3.83901367 18.19265137 -4.13037109 19.05053711 C-5 21 -5 21 -7 22 C-6.505 17.545 -6.505 17.545 -6 13 C-5.34 13 -4.68 13 -4 13 C-3.79503906 12.22914063 -3.59007812 11.45828125 -3.37890625 10.6640625 C-3.10949219 9.66117187 -2.84007812 8.65828125 -2.5625 7.625 C-2.29566406 6.62726563 -2.02882813 5.62953125 -1.75390625 4.6015625 C-1 2 -1 2 0 0 Z " fill="#4B162B" transform="translate(769,275)"/>
<path d="M0 0 C0.33 1.32 0.66 2.64 1 4 C0.34 4 -0.32 4 -1 4 C-1.12375 4.70125 -1.2475 5.4025 -1.375 6.125 C-3.29807692 14.97115385 -3.29807692 14.97115385 -7 18 C-7 11.72565421 -2.79858237 5.50066191 0 0 Z " fill="#561B35" transform="translate(818,281)"/>
<path d="M0 0 C0.66 0.33 1.32 0.66 2 1 C-0.97 8.92 -0.97 8.92 -4 17 C-4.33 17 -4.66 17 -5 17 C-5.21278058 12.53160785 -4.59138085 9.17737474 -3 5 C-2.34 5 -1.68 5 -1 5 C-0.67 3.35 -0.34 1.7 0 0 Z " fill="#4B182D" transform="translate(760,299)"/>
<path d="M0 0 C0.99 0.33 1.98 0.66 3 1 C2.608125 1.721875 2.21625 2.44375 1.8125 3.1875 C0.62889153 6.05777136 0.62889153 6.05777136 2.4375 8.6875 C3.2109375 9.8321875 3.2109375 9.8321875 4 11 C3.67 11.66 3.34 12.32 3 13 C2.34 12.67 1.68 12.34 1 12 C1 11.34 1 10.68 1 10 C0.34 10 -0.32 10 -1 10 C-1.9765625 3.9453125 -1.9765625 3.9453125 -2 2 C-1.34 1.34 -0.68 0.68 0 0 Z " fill="#DF3D5E" transform="translate(426,346)"/>
<path d="M0 0 C1 3 1 3 0.375 5.5 C-1.30353603 8.55188369 -2.85031164 9.58264024 -6 11 C-6.66 10.67 -7.32 10.34 -8 10 C-5.36 6.7 -2.72 3.4 0 0 Z " fill="#411F1F" transform="translate(440,332)"/>
<path d="M0 0 C0 4.72835359 -1.3436587 7.24268311 -4.4375 10.8125 C-7 13 -7 13 -10 13 C-5.05 6.565 -5.05 6.565 0 0 Z " fill="#46191E" transform="translate(482,276)"/>
<path d="M0 0 C3.23077598 3.80770026 5.8043091 7.52729632 8 12 C7.75 14.4375 7.75 14.4375 7 16 C6.67 15.01 6.34 14.02 6 13 C5.54625 12.566875 5.0925 12.13375 4.625 11.6875 C1.23081622 8.16277069 0 4.83695175 0 0 Z " fill="#CF3A5C" transform="translate(448,388)"/>
<path d="M0 0 C3.33557632 2.9905167 5.15083921 5.93184627 7 10 C4.525 9.01 4.525 9.01 2 8 C2 6.35 2 4.7 2 3 C0.68 3.33 -0.64 3.66 -2 4 C-1.34 2.68 -0.68 1.36 0 0 Z " fill="#4E1A21" transform="translate(397,390)"/>
<path d="M0 0 C0 3.75366417 -1.11420063 5.78715662 -3 9 C-3.99 9.33 -4.98 9.66 -6 10 C-6 10.66 -6 11.32 -6 12 C-6.66 12 -7.32 12 -8 12 C-6.59023295 8.96147295 -4.91129772 6.4060405 -2.875 3.75 C-2.06675781 2.69039063 -2.06675781 2.69039063 -1.2421875 1.609375 C-0.83226562 1.07828125 -0.42234375 0.5471875 0 0 Z " fill="#511621" transform="translate(385,406)"/>
<path d="M0 0 C4.63514632 2.87698737 6.43829286 6.65104285 7.6875 11.875 C7.790625 12.57625 7.89375 13.2775 8 14 C5.50447597 11.72402354 3.93377014 9.39278822 2.3125 6.4375 C1.87550781 5.65246094 1.43851562 4.86742187 0.98828125 4.05859375 C0 2 0 2 0 0 Z " fill="#D84060" transform="translate(401,394)"/>
<path d="M0 0 C0.33 0 0.66 0 1 0 C0.67 2.31 0.34 4.62 0 7 C-1.32 7.33 -2.64 7.66 -4 8 C-4 8.66 -4 9.32 -4 10 C-4.66 10 -5.32 10 -6 10 C-4.34784004 6.42032008 -2.26875648 3.22017048 0 0 Z " fill="#40191C" transform="translate(456,310)"/>
<path d="M0 0 C3.28465896 2.79196011 5.01321958 6.23196817 7 10 C7 10.66 7 11.32 7 12 C6.01 12 5.02 12 4 12 C2.74335022 9.09399739 2 7.20395416 2 4 C1.34 4 0.68 4 0 4 C0 2.68 0 1.36 0 0 Z " fill="#491B1E" transform="translate(417,424)"/>
<path d="M0 0 C3.82669043 3.42388092 5.72278474 6.00724943 7 11 C4.0625 9.4375 4.0625 9.4375 1 7 C0.125 3.25 0.125 3.25 0 0 Z " fill="#D53B62" transform="translate(459,408)"/>
<path d="M0 0 C4.28953264 2.45116151 6.48784596 6.39859875 8 11 C7.67 11.99 7.34 12.98 7 14 C5.82807953 12.04480616 4.6626071 10.0857461 3.5 8.125 C2.8503125 7.03445313 2.200625 5.94390625 1.53125 4.8203125 C0 2 0 2 0 0 Z " fill="#45171B" transform="translate(481,442)"/>
<path d="M0 0 C0.99 0 1.98 0 3 0 C3.33 1.65 3.66 3.3 4 5 C4.66 5 5.32 5 6 5 C6 6.32 6 7.64 6 9 C6.66 9.33 7.32 9.66 8 10 C7.34 10.66 6.68 11.32 6 12 C4.02 8.04 2.04 4.08 0 0 Z " fill="#41181E" transform="translate(465,416)"/>
<path d="M0 0 C1.13583456 3.71727674 0.66670026 5.47051709 -1 9 C-1.66 9 -2.32 9 -3 9 C-3.33 9.99 -3.66 10.98 -4 12 C-4.33 11.34 -4.66 10.68 -5 10 C-4.00390625 7.6171875 -4.00390625 7.6171875 -2.5625 4.875 C-1.85287109 3.50988281 -1.85287109 3.50988281 -1.12890625 2.1171875 C-0.75636719 1.41851562 -0.38382813 0.71984375 0 0 Z " fill="#521831" transform="translate(768,388)"/>
<path d="M0 0 C0.33 0 0.66 0 1 0 C1.26252625 4.33168317 0.29243536 7.8803623 -1 12 C-1.99 12 -2.98 12 -4 12 C-3.33501617 7.61110675 -1.81242323 4.0188515 0 0 Z " fill="#571932" transform="translate(788,344)"/>
<path d="M0 0 C0 2.83967231 -0.40267181 5.23735711 -1 8 C-2.98 8.66 -4.96 9.32 -7 10 C-6.02223933 8.51990357 -5.0427506 7.04094856 -4.0625 5.5625 C-3.51722656 4.73878906 -2.97195313 3.91507812 -2.41015625 3.06640625 C-1 1 -1 1 0 0 Z " fill="#49181D" transform="translate(464,300)"/>
<path d="M0 0 C0.33 1.32 0.66 2.64 1 4 C0.01 4.66 -0.98 5.32 -2 6 C-2.33 6.99 -2.66 7.98 -3 9 C-5.0625 9.6875 -5.0625 9.6875 -7 10 C-4.93992341 6.39486597 -2.6486859 3.19668988 0 0 Z " fill="#4D191F" transform="translate(394,394)"/>
<path d="M0 0 C3 1 3 1 3.984375 2.7421875 C4.23703125 3.44601562 4.4896875 4.14984375 4.75 4.875 C5.01296875 5.57367188 5.2759375 6.27234375 5.546875 6.9921875 C6 9 6 9 5 12 C4.16180842 10.37750059 3.3295884 8.75191503 2.5 7.125 C2.0359375 6.22007812 1.571875 5.31515625 1.09375 4.3828125 C0 2 0 2 0 0 Z " fill="#CD3A6C" transform="translate(697,363)"/>
<path d="M0 0 C0.33 0.66 0.66 1.32 1 2 C-0.1875 5.0625 -0.1875 5.0625 -2 8 C-4.1875 8.875 -4.1875 8.875 -6 9 C-2.25 2.25 -2.25 2.25 0 0 Z " fill="#42181D" transform="translate(447,323)"/>
<path d="M0 0 C1 3 1 3 -0.4375 6.1875 C-1.2109375 7.5796875 -1.2109375 7.5796875 -2 9 C-3.32 8.67 -4.64 8.34 -6 8 C-4.02 5.36 -2.04 2.72 0 0 Z " fill="#471A1C" transform="translate(471,290)"/>
<path d="M0 0 C2.02196167 2.02196167 2.67551358 3.25864486 3.6875 5.875 C3.95949219 6.55304688 4.23148438 7.23109375 4.51171875 7.9296875 C5.07336741 10.31107782 4.76694846 11.70430191 4 14 C0.68557793 9.53273547 0.33990833 5.37992836 0 0 Z " fill="#CC3B6C" transform="translate(706,274)"/>
<path d="M0 0 C2.375 0.625 2.375 0.625 5 2 C6.3125 5.125 6.3125 5.125 7 8 C6.01 7.34 5.02 6.68 4 6 C4 5.34 4 4.68 4 4 C2.68 4 1.36 4 0 4 C0 2.68 0 1.36 0 0 Z " fill="#E43961" transform="translate(488,460)"/>
<path d="M0 0 C0.99 0 1.98 0 3 0 C1.84414715 3.91211733 0.64465038 6.8745041 -2 10 C-1.85950482 8.52031676 -1.71245174 7.04125484 -1.5625 5.5625 C-1.48128906 4.73878906 -1.40007813 3.91507812 -1.31640625 3.06640625 C-1 1 -1 1 0 0 Z " fill="#DA3C78" transform="translate(781,354)"/>
<path d="M0 0 C0.33 0.66 0.66 1.32 1 2 C0.0625 4.125 0.0625 4.125 -1 6 C-1.66 6 -2.32 6 -3 6 C-3.33 6.99 -3.66 7.98 -4 9 C-4.66 8.67 -5.32 8.34 -6 8 C-4.02 5.36 -2.04 2.72 0 0 Z " fill="#D23D58" transform="translate(393,327)"/>
<path d="M0 0 C2 0 2 0 3.625 1.125 C5.55651159 3.75887944 5.21205536 5.81916956 5 9 C4.34 9 3.68 9 3 9 C2.01 6.03 1.02 3.06 0 0 Z " fill="#3E1C27" transform="translate(706,273)"/>
<path d="M0 0 C2.6855594 2.6855594 3.06049974 5.37621328 4 9 C3.34 9 2.68 9 2 9 C1.67 8.01 1.34 7.02 1 6 C0.34 5.67 -0.32 5.34 -1 5 C-0.67 3.35 -0.34 1.7 0 0 Z " fill="#4C182A" transform="translate(702,375)"/>
<path d="M0 0 C1.20272819 2.40545638 1.10071472 3.94996953 1.0625 6.625 C1.05347656 7.44226563 1.04445313 8.25953125 1.03515625 9.1015625 C1.02355469 9.72804688 1.01195312 10.35453125 1 11 C-1 10 -1 10 -2.3125 7.1875 C-3 4 -3 4 -1.625 1.625 C-1.08875 1.08875 -0.5525 0.5525 0 0 Z " fill="#491A20" transform="translate(429,346)"/>
<path d="M0 0 C0.66 0.33 1.32 0.66 2 1 C-0.475 4.465 -0.475 4.465 -3 8 C-3.33 6.68 -3.66 5.36 -4 4 C-2.0625 1.75 -2.0625 1.75 0 0 Z " fill="#421818" transform="translate(387,332)"/>
<path d="M0 0 C0.6875 1.625 0.6875 1.625 1 4 C-0.4375 7.25 -0.4375 7.25 -2 10 C-2.66 10 -3.32 10 -4 10 C-3.52449439 8.51965236 -3.04448784 7.04074979 -2.5625 5.5625 C-2.29566406 4.73878906 -2.02882813 3.91507812 -1.75390625 3.06640625 C-1 1 -1 1 0 0 Z " fill="#D23871" transform="translate(754,321)"/>
<path d="M0 0 C2.61724095 2.36797991 4.32861729 4.89600354 6 8 C6 8.66 6 9.32 6 10 C5.34 10 4.68 10 4 10 C3.32845067 8.71086513 2.66291141 7.41859796 2 6.125 C1.62875 5.40570313 1.2575 4.68640625 0.875 3.9453125 C0 2 0 2 0 0 Z " fill="#CD3B5E" transform="translate(482,446)"/>
<path d="M0 0 C0.33 0 0.66 0 1 0 C1.25 5.625 1.25 5.625 -1 9 C-1.66 9 -2.32 9 -3 9 C-2.30058404 5.85262818 -1.23921302 2.97411124 0 0 Z " fill="#4E172F" transform="translate(772,379)"/>
<path d="M0 0 C3.0916909 2.52956528 3.90931332 5.22454612 5 9 C4.01 8.67 3.02 8.34 2 8 C1.26953125 6.15234375 1.26953125 6.15234375 0.8125 3.9375 C0.65394531 3.20402344 0.49539063 2.47054688 0.33203125 1.71484375 C0.22246094 1.14894531 0.11289062 0.58304687 0 0 Z " fill="#CF3B5E" transform="translate(466,419)"/>
<path d="M0 0 C1 3 1 3 0.0625 5.1875 C-0.4634375 6.0846875 -0.4634375 6.0846875 -1 7 C-1.66 6.67 -2.32 6.34 -3 6 C-3 4.68 -3 3.36 -3 2 C-2.01 1.34 -1.02 0.68 0 0 Z " fill="#4D142C" transform="translate(740,353)"/>
<path d="M0 0 C0.99 0 1.98 0 3 0 C1.70700306 2.88437779 0.34058637 4.87219421 -2 7 C-1.125 2.25 -1.125 2.25 0 0 Z " fill="#431717" transform="translate(425,277)"/>
</svg>
