<?xml version="1.0" encoding="UTF-8"?>
<svg version="1.1" xmlns="http://www.w3.org/2000/svg" width="550" height="550">
<path d="M0 0 C181.5 0 363 0 550 0 C550 181.5 550 363 550 550 C368.5 550 187 550 0 550 C0 368.5 0 187 0 0 Z " fill="#000000" transform="translate(0,0)"/>
<path d="M0 0 C20.46 0 40.92 0 62 0 C62.99 9.405 62.99 9.405 64 19 C64.81930916 22.73240838 65.57809483 25.55264717 67 29 C67.24459961 29.60489258 67.48919922 30.20978516 67.74121094 30.83300781 C76.75972186 52.71723259 91.38234736 68.43774621 113.1171875 78.43359375 C124.091847 82.9549388 135.25252357 84.69472484 147 86 C147 106.13 147 126.26 147 147 C123.94207565 147 104.70316738 143.48188359 83.9375 133.625 C83.02291016 133.19131104 82.10832031 132.75762207 81.16601562 132.31079102 C76.08440289 129.80075725 71.35961367 126.98269339 66.65844727 123.81396484 C65.59400894 123.09832367 64.52957062 122.3826825 63.43287659 121.64535522 C62.63002731 121.102388 61.82717804 120.55942078 61 120 C61.00691345 121.0609779 61.00691345 121.0609779 61.01396656 122.1433897 C61.12497086 139.45029604 61.20740938 156.75711056 61.25906086 174.06429577 C61.28471079 182.43435232 61.3196043 190.8041695 61.37719727 199.17407227 C61.42744147 206.47954833 61.45938665 213.78485085 61.47044247 221.09049493 C61.47689286 224.94956348 61.49176683 228.80813607 61.52865028 232.66704369 C61.72088051 253.5973396 61.10421513 273.90125967 51.3125 292.9375 C50.88316162 293.80173584 50.45382324 294.66597168 50.01147461 295.55639648 C46.06940227 303.27601874 41.50512655 310.31221319 36 317 C35.57106445 317.52384277 35.14212891 318.04768555 34.70019531 318.58740234 C16.87496193 339.97371831 -10.23794957 354.96958477 -38 358 C-64.44021422 359.73280048 -89.59046552 355.85089506 -112 341 C-112.85722656 340.44570313 -113.71445313 339.89140625 -114.59765625 339.3203125 C-120.91029979 335.08586537 -126.47047926 330.2003826 -132 325 C-132.59296875 324.48308594 -133.1859375 323.96617187 -133.796875 323.43359375 C-149.04501765 309.52873986 -157.85429129 288.56202623 -163 269 C-163.24621094 268.06800781 -163.49242187 267.13601563 -163.74609375 266.17578125 C-165.22991851 259.1659884 -165.19947807 252.07358742 -165.25 244.9375 C-165.25942627 243.93203125 -165.26885254 242.9265625 -165.27856445 241.890625 C-165.24898139 235.05861207 -164.45343255 228.67066352 -163 222 C-162.72800781 220.74832031 -162.45601563 219.49664062 -162.17578125 218.20703125 C-154.76976932 189.08565403 -136.80204919 163.69525573 -111 148 C-102.71822654 143.13042193 -94.27961796 138.63118281 -85 136 C-84.36739258 135.81953125 -83.73478516 135.6390625 -83.08300781 135.453125 C-68.03322606 131.32263321 -51.37450221 129.92509956 -36 133 C-36 137.62 -36 142.24 -36 147 C-33.03776042 146.96744792 -30.07552083 146.93489583 -27.11328125 146.90234375 C-24 147 -24 147 -19 148 C-19 168.79 -19 189.58 -19 211 C-21.64 210.67 -24.28 210.34 -27 210 C-42.81315595 208.98608618 -56.29646348 212.52258323 -68.6875 222.5625 C-77.39418414 230.7220855 -83.76570199 242.18419484 -84.46875 254.19921875 C-84.50225938 256.02836857 -84.51203669 257.85808286 -84.5 259.6875 C-84.49577026 261.12790649 -84.49577026 261.12790649 -84.49145508 262.59741211 C-84.26637756 272.57194395 -81.82060828 281.72560588 -76 290 C-66.28955957 296.33955775 -54.09614078 297.22109094 -42.91796875 295.53515625 C-29.06394913 292.46657261 -17.36426458 285.69882113 -9.25 273.9375 C-0.59476733 258.85989331 -0.27383884 245.08477525 -0.34057617 228.07250977 C-0.33211112 225.57770999 -0.32146161 223.08291681 -0.30880737 220.58813477 C-0.28656949 215.24515208 -0.27932099 209.90248132 -0.28615379 204.55948067 C-0.29600584 196.8347428 -0.2781341 189.11025814 -0.25378648 181.38556134 C-0.21501129 168.84875067 -0.19824075 156.31201306 -0.19555664 143.77514648 C-0.19290368 131.60648863 -0.17973302 119.43791603 -0.15258789 107.26928711 C-0.15091451 106.51751808 -0.14924113 105.76574905 -0.14751705 104.99119914 C-0.13905675 101.21928823 -0.13039148 97.44737782 -0.12162435 93.67546761 C-0.04931158 62.45029543 -0.01691384 31.22526355 0 0 Z " fill="#FEFEFE" transform="translate(275,88)"/>
<path d="M0 0 C5.94 0.33 11.88 0.66 18 1 C18 21.46 18 41.92 18 63 C9.39987462 63 2.17276113 62.73887209 -6.125 61.375 C-7.21031006 61.19678711 -8.29562012 61.01857422 -9.41381836 60.83496094 C-30.77139628 57.10963708 -50.02270868 47.98486088 -68 36 C-67.99723462 36.68946905 -67.99446924 37.3789381 -67.99162006 38.08930016 C-67.92507296 54.94455596 -67.87558072 71.7997696 -67.84456348 88.65512657 C-67.8291612 96.80659102 -67.80820039 104.95796723 -67.77368164 113.109375 C-67.74357412 120.22254808 -67.72437691 127.33565719 -67.71773452 134.44889224 C-67.713858 138.20768136 -67.70489032 141.96628763 -67.68280983 145.72501755 C-67.46316395 184.64707772 -67.46316395 184.64707772 -74.6875 201.25 C-75.03562744 202.08007568 -75.38375488 202.91015137 -75.74243164 203.76538086 C-88.12929682 232.60307262 -109.83268056 253.88867023 -138.60400391 266.04980469 C-144.93009068 268.5585809 -151.40009587 270.37225162 -158 272 C-159.38638672 272.36738281 -159.38638672 272.36738281 -160.80078125 272.7421875 C-186.68792704 278.62013973 -217.63052054 271.40416213 -239.94042969 257.81835938 C-248.33824096 252.37231938 -255.78839577 245.91725303 -263 239 C-259.48637392 239 -258.77142501 239.66497109 -256 241.6875 C-233.68013053 257.01212766 -203.54177932 260.43413222 -177.30493164 255.97021484 C-148.44688038 250.08306235 -122.60337759 233.09376763 -105.890625 208.953125 C-98.44653332 197.35419145 -91.78009252 184.57675318 -89 171 C-88.76141738 170.02755435 -88.76141738 170.02755435 -88.51801491 169.03546333 C-86.82544221 161.64774997 -86.69387854 154.47692189 -86.68115234 146.92138672 C-86.67183502 145.530761 -86.66166371 144.14014078 -86.65071106 142.74952698 C-86.62360012 139.00438241 -86.60831832 135.25927504 -86.59528303 131.51405859 C-86.57956898 127.5889294 -86.5528055 123.66387529 -86.5272522 119.73880005 C-86.48061003 112.31951636 -86.44379582 104.90021831 -86.41057932 97.48086369 C-86.37225455 89.02850901 -86.32287178 80.57623 -86.27259517 72.12393928 C-86.1694921 54.74934772 -86.08016192 37.37471224 -86 20 C-82.83446532 21.55664337 -79.77902657 23.26008218 -76.72192383 25.02075195 C-64.27571818 32.15868748 -51.93315844 38.28217468 -38 42 C-36.60394531 42.41378906 -36.60394531 42.41378906 -35.1796875 42.8359375 C-23.71534357 45.92366747 -11.79104007 46.18030203 0 47 C0 31.49 0 15.98 0 0 Z " fill="#FB2E56" transform="translate(422,188)"/>
<path d="M0 0 C20.46 0 40.92 0 62 0 C62.33 5.28 62.66 10.56 63 16 C48.15 16 33.3 16 18 16 C18.00999275 20.72442665 18.00999275 20.72442665 18.02018738 25.54429626 C18.07990998 54.4403631 18.12468358 83.33641315 18.15319599 112.23252642 C18.15694802 116.02131005 18.16083099 119.81009354 18.16479492 123.59887695 C18.16558185 124.3531417 18.16636878 125.10740644 18.16717956 125.88452769 C18.1802263 138.09050537 18.2038761 150.29644057 18.23145839 162.50239306 C18.25953298 175.03088135 18.2761806 187.55934743 18.28226548 200.08786589 C18.28637767 207.81592905 18.29935624 215.54387214 18.3237494 223.27189834 C18.34151201 229.20209877 18.34336043 235.13223788 18.33932304 241.06246567 C18.34014786 243.49204179 18.34610843 245.92162249 18.35761642 248.35117149 C18.37257313 251.67189759 18.36894161 254.99211268 18.36076355 258.31285095 C18.36950207 259.2710453 18.3782406 260.22923964 18.38724393 261.21647018 C18.29966156 274.40143101 12.30178243 287.99879048 3.1875 297.5 C-9.11010953 308.780514 -23.20933118 313.04258344 -39.73046875 312.37890625 C-54.06026491 311.36824851 -65.58030315 303.39135612 -75 293 C-74.67 292.34 -74.34 291.68 -74 291 C-72.515 291.680625 -72.515 291.680625 -71 292.375 C-57.69075365 297.96912546 -44.1778722 297.11473171 -30.8984375 291.74609375 C-17.2191805 285.39129967 -8.72133431 275.75134404 -3.33808899 261.68687439 C0.39140232 250.82184598 -0.29608176 239.41474762 -0.34057617 228.07250977 C-0.33211112 225.57770999 -0.32146161 223.08291681 -0.30880737 220.58813477 C-0.28656949 215.24515208 -0.27932099 209.90248132 -0.28615379 204.55948067 C-0.29600584 196.8347428 -0.2781341 189.11025814 -0.25378648 181.38556134 C-0.21501129 168.84875067 -0.19824075 156.31201306 -0.19555664 143.77514648 C-0.19290368 131.60648863 -0.17973302 119.43791603 -0.15258789 107.26928711 C-0.15007782 106.14163357 -0.15007782 106.14163357 -0.14751705 104.99119914 C-0.13905675 101.21928823 -0.13039148 97.44737782 -0.12162435 93.67546761 C-0.04931158 62.45029543 -0.01691384 31.22526355 0 0 Z " fill="#26F2EC" transform="translate(275,88)"/>
<path d="M0 0 C0.02685412 2.31243792 0.04632841 4.6249627 0.0625 6.9375 C0.07410156 8.22527344 0.08570313 9.51304687 0.09765625 10.83984375 C0 14 0 14 -1 15 C-2.9980154 15.13705898 -4.9988713 15.23290965 -7 15.3125 C-30.71174394 16.90130721 -53.08860174 26.46097237 -71 42 C-71.81984375 42.67546875 -72.6396875 43.3509375 -73.484375 44.046875 C-94.43513399 61.87453948 -106.93959973 88.94721648 -110 116 C-111.98123688 149.36402913 -102.45485441 176.77582767 -82 203 C-87.5704258 200.57974603 -91.61212366 196.08714961 -96 192 C-96.60070312 191.47664062 -97.20140625 190.95328125 -97.8203125 190.4140625 C-113.0528997 176.5060481 -121.85639309 155.55403599 -127 136 C-127.24621094 135.06800781 -127.49242188 134.13601563 -127.74609375 133.17578125 C-129.22991851 126.1659884 -129.19947807 119.07358742 -129.25 111.9375 C-129.25942627 110.93203125 -129.26885254 109.9265625 -129.27856445 108.890625 C-129.24898139 102.05861207 -128.45343255 95.67066352 -127 89 C-126.72800781 87.74832031 -126.45601563 86.49664062 -126.17578125 85.20703125 C-118.76976932 56.08565403 -100.80204919 30.69525573 -75 15 C-66.71822654 10.13042193 -58.27961796 5.63118281 -49 3 C-48.36739258 2.81953125 -47.73478516 2.6390625 -47.08300781 2.453125 C-32.2292573 -1.62356499 -15.15890715 -3.38968585 0 0 Z " fill="#26F1EB" transform="translate(239,221)"/>
<path d="M0 0 C13 0 13 0 18 1 C18 21.79 18 42.58 18 64 C15.36 63.67 12.72 63.34 10 63 C-5.81315595 61.98608618 -19.29646348 65.52258323 -31.6875 75.5625 C-40.39418414 83.7220855 -46.76570199 95.18419484 -47.46875 107.19921875 C-47.50209436 109.02837159 -47.51187621 110.85808181 -47.5 112.6875 C-47.49790527 113.647771 -47.49581055 114.60804199 -47.49365234 115.59741211 C-47.31122108 123.89803457 -45.50693553 130.44414799 -42 138 C-41.32553615 139.6635266 -40.65608153 141.32913817 -40 143 C-52.42595043 136.91921575 -60.25718088 125.73072502 -65 113 C-67.94818209 100.33005183 -67.76645668 85.27742781 -61 74 C-60.55398437 73.20851563 -60.10796875 72.41703125 -59.6484375 71.6015625 C-51.87453389 58.87668117 -40.62092346 50.71208427 -26.3671875 46.6875 C-17.06789107 44.78880374 -9.30631852 46.1387363 0 48 C0 32.16 0 16.32 0 0 Z " fill="#FB2E56" transform="translate(238,235)"/>
<path d="M0 0 C5.61 0 11.22 0 17 0 C17.20625 2.784375 17.4125 5.56875 17.625 8.4375 C19.13923227 24.53214377 24.92479621 40.94757234 36 53 C35.505 53.99 35.505 53.99 35 55 C18.46969032 42.12265224 4.38243565 25.57131992 0.4375 4.3125 C0.293125 2.889375 0.14875 1.46625 0 0 Z " fill="#F72E56" transform="translate(338,104)"/>
<path d="M0 0 C1.75763672 0.81404297 1.75763672 0.81404297 3.55078125 1.64453125 C17.39400253 7.98306742 29.89978303 11.38956281 45 13 C45 17.29 45 21.58 45 26 C30.49695894 24.38855099 18.23145504 17.0299406 7 8 C6.26523437 7.41734375 5.53046875 6.8346875 4.7734375 6.234375 C3.12930595 4.88500807 1.55492546 3.45126376 0 2 C0 1.34 0 0.68 0 0 Z " fill="#29F0EA" transform="translate(377,161)"/>
</svg>
