<?xml version="1.0" encoding="UTF-8"?>
<svg version="1.1" xmlns="http://www.w3.org/2000/svg" width="550" height="388">
<path d="M0 0 C4.93974719 0.00754499 9.8794141 0.00480474 14.81915838 -0.00360399 C45.52257357 -0.05446362 76.19177545 0.17616593 106.88043767 1.18682569 C108.14217872 1.22832494 109.40391977 1.2698242 110.70389539 1.312581 C140.42954446 2.31387362 170.25474242 3.48593001 199.78668767 7.19463819 C200.96029851 7.34014112 202.13390935 7.48564405 203.34308416 7.63555616 C226.49290992 10.82433035 245.21411557 18.86941223 259.66168767 37.63213819 C283.33679785 72.35890768 281.39085968 129.49067126 281.48981267 170.18291944 C281.4967893 171.96780637 281.50383028 173.75269304 281.51093084 175.53757948 C281.5302265 181.21493546 281.53510629 186.89225299 281.53668767 192.56963819 C281.53757138 194.01649503 281.53757138 194.01649503 281.53847295 195.49258131 C281.55085313 224.1731236 281.39259432 252.71249427 278.28668767 281.25713819 C278.17423711 282.32578108 278.17423711 282.32578108 278.05951482 283.4160127 C274.84297843 313.93504288 271.00895297 344.77561141 245.72418767 365.38213819 C233.84076607 373.63256108 221.46774209 378.05223242 207.28668767 380.25713819 C206.02719304 380.45533155 206.02719304 380.45533155 204.74225408 380.65752882 C140.95597697 390.18382218 74.68139575 388.6183611 10.29531872 388.51427639 C5.08269866 388.50672443 -0.12984541 388.50947406 -5.34246272 388.51788038 C-128.28782683 388.7108863 -128.28782683 388.7108863 -187.27581233 381.31963819 C-189.02970271 381.1013838 -189.02970271 381.1013838 -190.81902522 380.87872022 C-213.98571484 377.67407678 -232.82857161 369.61282183 -247.15081233 350.69463819 C-248.36781864 348.90181691 -249.55784616 347.09022587 -250.71331233 345.25713819 C-251.18253108 344.51592726 -251.65174983 343.77471632 -252.13518733 343.01104444 C-256.74942224 334.79371868 -258.64258023 325.37098534 -260.71331233 316.25713819 C-260.94147639 315.25481153 -260.94147639 315.25481153 -261.17424983 314.23223585 C-263.30029927 304.5120782 -264.28645987 294.64567237 -265.27581233 284.75713819 C-265.39070002 283.6217964 -265.50558772 282.4864546 -265.62395686 281.31670851 C-266.03271515 276.96631084 -266.38382486 272.61418585 -266.71331233 268.25713819 C-266.79662806 267.17115339 -266.8799438 266.08516859 -266.96578425 264.96627516 C-268.66061035 242.19778267 -269.07772205 219.50298594 -269.03116816 196.67694563 C-269.02572887 193.9020597 -269.02336097 191.12718231 -269.02129573 188.352292 C-268.98984545 161.23183653 -268.63046892 134.24738602 -265.71331233 107.25713819 C-265.63834529 106.54257459 -265.56337825 105.828011 -265.48613948 105.09179395 C-262.21063787 73.97981459 -257.98429835 44.53312116 -233.08831233 23.06963819 C-198.31712647 -3.40995719 -136.07825529 2.50252435 -94.85393733 1.18291944 C-93.85458435 1.15066062 -93.85458435 1.15066062 -92.83504242 1.11775011 C-61.88960285 0.12348731 -30.95914102 -0.05274461 0 0 Z " fill="#FF0000" transform="translate(268.7133123278618,-0.257138192653656)"/>
<path d="M0 0 C3.72055887 1.48822355 6.94066104 2.98190686 10.41015625 4.9140625 C11.46775146 5.50179443 12.52534668 6.08952637 13.61499023 6.69506836 C15.32150757 7.65038452 15.32150757 7.65038452 17.0625 8.625 C18.2682718 9.29767687 19.47408311 9.97028294 20.67993164 10.64282227 C33.25051859 17.66446876 45.74447654 24.82040697 58.2331543 31.98638916 C63.54923841 35.03614075 68.86777945 38.08159674 74.1875 41.125 C74.768414 41.45746735 75.349328 41.78993469 75.94784546 42.13247681 C85.20011965 47.4257686 94.49481383 52.64018182 103.80664062 57.82788086 C112.34096957 62.5972662 120.7908789 67.5047656 129.21191406 72.47119141 C133.74426699 75.13760325 138.25000944 77.74076079 143 80 C143 80.66 143 81.32 143 82 C142.44352783 82.30067383 141.88705566 82.60134766 141.3137207 82.91113281 C128.42253051 89.88589802 115.63084293 97.00905306 102.92724609 104.31933594 C99.72212756 106.15953911 96.5119544 107.99069589 93.30078125 109.8203125 C82.0400188 116.23762461 70.8013784 122.68619677 59.625 129.25 C51.28006881 134.14699261 42.8520885 138.85175843 34.33154297 143.43554688 C25.96237963 147.96106071 17.76293661 152.763306 9.58984375 157.6328125 C8.14544922 158.48746094 8.14544922 158.48746094 6.671875 159.359375 C5.8169043 159.86952148 4.96193359 160.37966797 4.08105469 160.90527344 C2 162 2 162 0 162 C0 108.54 0 55.08 0 0 Z " fill="#FFFEFE" transform="translate(219,113)"/>
</svg>
